<?xml version="1.0" encoding="utf-8"?>
<!-- Generator: Adobe Illustrator 16.0.4, SVG Export Plug-In . SVG Version: 6.00 Build 0)  -->
<!DOCTYPE svg PUBLIC "-//W3C//DTD SVG 1.1//EN" "http://www.w3.org/Graphics/SVG/1.1/DTD/svg11.dtd">
<svg version="1.1" id="Layer_1" xmlns="http://www.w3.org/2000/svg" xmlns:xlink="http://www.w3.org/1999/xlink" x="0px" y="0px"
	 width="392.099px" height="381.445px" viewBox="0 0 392.099 381.445" enable-background="new 0 0 392.099 381.445"
	 xml:space="preserve">
<g>
	<g>
		<g>
			<path fill="#77D1F6" d="M220.693,152.212c-26.302,0-39.876-14.989-46.632-27.563c-7.104-13.22-8.153-26.327-8.194-26.879
				l-0.014-0.397V2h10.692v95.135c0.141,1.439,1.359,12.227,7.09,22.739c7.831,14.362,20.299,21.645,37.058,21.645
				c43.738,0,89.773-27.157,90.232-27.432l5.481,9.18C314.431,124.449,267.43,152.212,220.693,152.212z"/>
		</g>
	</g>
	<circle fill="#F6921E" cx="313.665" cy="118.678" r="31.135"/>
	<g>
		<g>
			<path fill="#77D1F6" d="M304.88,203.215c-12.998,0-24.665-0.958-34.937-2.872c-18.811-3.509-33.117-10.242-42.53-20.011
				c-15.217-15.797-12.118-33.685-11.978-34.438l5.258,0.972l5.263,0.936c-0.093,0.548-2.146,13.548,9.353,25.313
				c12.883,13.18,44.546,26.502,122.241,15.124l1.549,10.581C339.088,201.748,320.967,203.215,304.88,203.215z"/>
		</g>
	</g>
	<circle fill="#F6921E" cx="358.323" cy="193.528" r="31.135"/>
	<g>
		<g>
			<path fill="#77D1F6" d="M268.245,271.782c-20.297-2.921-38.29-13.75-53.479-32.187c-11.852-14.382-22.018-33.431-30.218-56.612
				c-13.828-39.094-17.292-76.072-17.433-77.628l10.649-0.964c0.033,0.369,3.512,37.367,16.93,75.212
				c7.786,21.957,17.336,39.878,28.383,53.266c13.43,16.271,29.138,25.803,46.692,28.329L268.245,271.782z"/>
		</g>
	</g>
	<circle fill="#F6921E" cx="269.006" cy="266.491" r="31.135"/>
	<g>
		<g>
			<path fill="#77D1F6" d="M81.939,256.488l-3.26-10.185c16.856-5.394,41.939-23.913,65.72-81.508
				c14.502-35.124,21.498-68.188,21.566-68.517l10.467,2.189c-0.29,1.385-7.271,34.375-22.149,70.409
				C133.934,218.162,109.594,247.638,81.939,256.488z"/>
		</g>
	</g>
	<circle fill="#F6921E" cx="80.31" cy="251.395" r="31.135"/>
	<g>
		<g>
			<path fill="#77D1F6" d="M158.845,350.295l-9.887-4.07c25.219-61.247-16.494-149.5-16.918-150.384l9.64-4.626
				c0.454,0.945,11.191,23.495,18.798,54.341C170.792,287.375,170.243,322.615,158.845,350.295z"/>
		</g>
	</g>
	<path fill="#F6921E" d="M185.037,348.259c0,17.196-13.939,31.137-31.135,31.137c-17.196,0-31.135-13.94-31.135-31.137
		c0-17.193,13.939-31.134,31.135-31.134C171.097,317.125,185.037,331.065,185.037,348.259z"/>
	<g>
		<g>
			<path fill="#77D1F6" d="M33.299,162.112l-0.327-10.688c30.755-0.94,73.89-5.023,104.729-19.131
				c18.25-8.347,23.524-16.349,23.576-16.428l-0.043,0.069l9.177,5.487C169.504,122.939,146.877,158.639,33.299,162.112z"/>
		</g>
	</g>
	<circle fill="#F6921E" cx="33.135" cy="156.768" r="31.135"/>
</g>
</svg>
