<?xml version="1.0" encoding="utf-8"?>
<!-- Generator: Adobe Illustrator 16.0.4, SVG Export Plug-In . SVG Version: 6.00 Build 0)  -->
<!DOCTYPE svg PUBLIC "-//W3C//DTD SVG 1.1//EN" "http://www.w3.org/Graphics/SVG/1.1/DTD/svg11.dtd">
<svg version="1.1" id="Layer_1" xmlns="http://www.w3.org/2000/svg" xmlns:xlink="http://www.w3.org/1999/xlink" x="0px" y="0px"
	 width="720px" height="141.607px" viewBox="0 0 720 141.607" enable-background="new 0 0 720 141.607" xml:space="preserve">
<g>
	<g>
		<path fill="#DA4865" d="M468.204,50.265l12.693,31.806l12.871-31.806h7.58l-20.6,49.344l-20.124-49.344H468.204z"/>
		<path fill="#DA4865" d="M513.981,50.265v39.386h13.496v6.51h-20.422V50.265H513.981z"/>
		<path fill="#DA4865" d="M563.563,85.014h-19.648l-5.112,11.147h-7.461l22.71-48.78l21.907,48.78h-7.58L563.563,85.014z
			 M560.74,78.504l-6.808-15.606l-7.134,15.606H560.74z"/>
		<path fill="#DA4865" d="M604.615,56.775h-15.993v11.028h15.428v6.51h-15.428v21.848h-6.926V50.265h22.919V56.775z"/>
		<path fill="#DA4865" d="M612.641,96.161V50.265h9.631c4.617,0,8.264,0.456,10.939,1.367c2.873,0.892,5.479,2.408,7.817,4.548
			c4.736,4.321,7.104,9.998,7.104,17.033c0,7.055-2.467,12.763-7.401,17.122c-2.478,2.18-5.073,3.696-7.788,4.548
			c-2.537,0.853-6.134,1.278-10.79,1.278H612.641z M619.566,89.651h3.122c3.11,0,5.696-0.327,7.758-0.981
			c2.061-0.693,3.924-1.793,5.589-3.3c3.408-3.111,5.112-7.164,5.112-12.158c0-5.033-1.685-9.115-5.053-12.247
			c-3.032-2.794-7.502-4.191-13.406-4.191h-3.122V89.651z"/>
		<path fill="#DA4865" d="M663.798,76.334l-14.981-26.069h7.967l10.492,18.34l10.523-18.34h7.966l-15.041,26.069v19.827h-6.926
			V76.334z"/>
		<path fill="#DA4865" d="M706.692,56.775v39.386h-6.926V56.775h-10.553v-6.51h28.002v6.51H706.692z"/>
	</g>
	<g>
		<path fill="#EC1261" d="M32.632,93.975l-14.364,13.407l3.869,11.638l-5.455,5.091L0,72.955l49.3,20.71l-5.541,5.172L32.632,93.975
			z M26.126,91.143L10.5,84.379l5.434,16.277L26.126,91.143z"/>
		<path fill="#8F278E" d="M53.936,37.563l4.715,6.696c-5.201-0.434-9.551,0.582-13.052,3.046c-3.856,2.715-6.129,6.388-6.819,11.019
			c-0.718,4.626,0.326,8.932,3.132,12.917c2.772,3.937,6.44,6.324,11.003,7.159c4.562,0.835,8.771-0.105,12.627-2.82
			c1.994-1.404,3.458-2.919,4.396-4.549c0.55-0.871,1.048-1.876,1.495-3.015c0.447-1.138,0.857-2.421,1.234-3.85l4.817,6.842
			c-1.946,4.122-4.701,7.437-8.266,9.946c-5.363,3.777-11.259,5.128-17.686,4.055c-6.434-1.117-11.528-4.341-15.281-9.672
			c-3.365-4.78-4.786-10.154-4.262-16.122c0.661-7.323,4.078-13.159,10.25-17.505C45.611,39.335,49.51,37.954,53.936,37.563z"/>
		<path fill="#F6921E" d="M93.568,39.293l17.25-7.88l0.63,1.378c1.433,3.136,2.332,6.082,2.696,8.834
			c0.3,2.565,0.038,5.211-0.784,7.94c-1.883,6.132-5.816,10.565-11.801,13.299c-5.839,2.667-11.806,2.844-17.895,0.528
			c-6.1-2.334-10.503-6.466-13.212-12.396c-2.767-6.056-2.997-12.161-0.687-18.314c2.3-6.171,6.488-10.644,12.562-13.419
			c3.262-1.49,6.613-2.218,10.049-2.183c3.311,0.093,6.955,1.036,10.933,2.828l-2.524,6.349c-5.509-2.996-10.723-3.37-15.645-1.122
			c-4.416,2.018-7.425,5.233-9.025,9.646c-1.625,4.359-1.408,8.792,0.65,13.298c2.125,4.65,5.542,7.719,10.252,9.206
			c4.396,1.369,8.413,1.222,12.054-0.441c3.1-1.417,5.409-3.731,6.925-6.945c1.509-3.231,1.738-6.378,0.687-9.441l-10.41,4.755
			L93.568,39.293z"/>
		<path fill="#EC1261" d="M149.574,37.383l-19.433,2.898l-3.413,11.78l-7.379,1.101l15.264-51.597l28.865,45.014l-7.498,1.119
			L149.574,37.383z M145.822,31.361l-9.036-14.43l-4.753,16.487L145.822,31.361z"/>
		<path fill="#A0CC3A" d="M183.04,11.652l-7.281,38.707l-6.809-1.281l7.284-38.707L165.862,8.42l1.204-6.397L194.585,7.2
			l-1.204,6.398L183.04,11.652z"/>
		<path fill="#A0CC3A" d="M215.799,22.828l-15.434,36.236l-6.373-2.714l15.435-36.236l-9.708-4.135l2.55-5.989l25.761,10.973
			l-2.55,5.989L215.799,22.828z"/>
		<path fill="#F6921E" d="M244.603,54.9l16.618,9.137l-0.73,1.328c-1.661,3.022-3.488,5.5-5.478,7.436
			c-1.879,1.772-4.159,3.141-6.839,4.11c-6.045,2.15-11.95,1.64-17.714-1.529c-5.627-3.094-9.329-7.774-11.107-14.043
			c-1.768-6.286-1.082-12.286,2.061-18c3.207-5.835,7.969-9.663,14.283-11.482c6.325-1.837,12.413-1.147,18.266,2.07
			c3.143,1.728,5.725,3.981,7.749,6.759c1.902,2.712,3.321,6.198,4.257,10.459l-6.601,1.765c-0.885-6.208-3.696-10.615-8.438-13.221
			c-4.254-2.339-8.629-2.833-13.125-1.483c-4.468,1.298-7.895,4.118-10.282,8.458c-2.463,4.48-2.885,9.054-1.266,13.72
			c1.524,4.344,4.04,7.479,7.548,9.408c2.987,1.642,6.222,2.112,9.705,1.411c3.494-0.719,6.155-2.413,7.986-5.084l-10.029-5.513
			L244.603,54.9z"/>
		<path fill="#EC1261" d="M284.431,91.509l-17.295-9.322l-9.79,7.388l-6.568-3.54l43.134-32.166l-3.857,53.334l-6.673-3.596
			L284.431,91.509z M285.034,84.438l1.412-16.967l-13.684,10.353L285.034,84.438z"/>
		<path fill="#A0CC3A" d="M322.463,78.29l-15.803,36.078l-6.344-2.779l15.801-36.078l-9.666-4.234l2.611-5.963l25.649,11.234
			l-2.611,5.962L322.463,78.29z"/>
		<path fill="#8F278E" d="M367.418,87.605l-1.937,7.957c-3.099-4.2-6.727-6.807-10.885-7.819c-4.583-1.116-8.844-0.409-12.784,2.119
			c-3.955,2.505-6.509,6.125-7.661,10.863c-1.14,4.678-0.522,9.01,1.854,12.995c2.374,3.984,5.854,6.534,10.436,7.649
			c2.369,0.576,4.474,0.681,6.318,0.314c1.017-0.16,2.102-0.447,3.252-0.86c1.152-0.413,2.388-0.948,3.712-1.605l-1.979,8.129
			c-4.384,1.249-8.693,1.357-12.929,0.326c-6.374-1.552-11.271-5.099-14.694-10.644c-3.395-5.579-4.32-11.535-2.778-17.87
			c1.382-5.68,4.492-10.288,9.33-13.821c5.947-4.324,12.589-5.594,19.925-3.808C360.603,82.505,364.209,84.53,367.418,87.605z"/>
		<path fill="#F6921E" d="M394.044,102.007l18.268-5.094l0.407,1.46c0.927,3.321,1.355,6.37,1.285,9.146
			c-0.103,2.581-0.775,5.154-2.013,7.721c-2.816,5.765-7.393,9.53-13.73,11.297c-6.185,1.725-12.104,0.968-17.76-2.269
			c-5.66-3.256-9.365-8.024-11.117-14.304c-1.789-6.414-1.062-12.479,2.177-18.197c3.234-5.736,8.069-9.502,14.503-11.296
			c3.453-0.964,6.876-1.16,10.267-0.59c3.254,0.608,6.707,2.107,10.357,4.497l-3.484,5.878c-4.974-3.818-10.066-5-15.276-3.547
			c-4.678,1.305-8.15,4.012-10.419,8.121c-2.285,4.053-2.763,8.464-1.433,13.236c1.374,4.925,4.271,8.489,8.69,10.692
			c4.129,2.039,8.12,2.52,11.976,1.444c3.283-0.915,5.925-2.842,7.924-5.78c1.994-2.957,2.711-6.029,2.15-9.218l-11.023,3.074
			L394.044,102.007z"/>
		<path fill="#8F278E" d="M429,49.613l6.056,5.514c-5.172,0.706-9.198,2.64-12.08,5.806c-3.175,3.487-4.597,7.566-4.266,12.235
			c0.303,4.672,2.257,8.648,5.861,11.93c3.562,3.242,7.659,4.776,12.294,4.6c4.636-0.175,8.541-2.006,11.716-5.494
			c1.641-1.803,2.742-3.601,3.304-5.395c0.348-0.97,0.615-2.059,0.804-3.268c0.188-1.208,0.312-2.55,0.369-4.026l6.187,5.633
			c-1.005,4.446-2.975,8.28-5.909,11.504c-4.417,4.85-9.878,7.449-16.384,7.796c-6.523,0.307-12.194-1.736-17.016-6.125
			c-4.323-3.935-6.877-8.874-7.66-14.812c-0.944-7.293,1.125-13.731,6.207-19.313C421.257,53.15,424.763,50.956,429,49.613z"/>
	</g>
	<rect x="439.766" fill="#77D1F6" width="33.421" height="141.607"/>
</g>
</svg>
