<?xml version="1.0" encoding="utf-8"?>
<!-- Generator: Adobe Illustrator 16.0.4, SVG Export Plug-In . SVG Version: 6.00 Build 0)  -->
<!DOCTYPE svg PUBLIC "-//W3C//DTD SVG 1.1//EN" "http://www.w3.org/Graphics/SVG/1.1/DTD/svg11.dtd">
<svg version="1.1" id="Layer_1" xmlns="http://www.w3.org/2000/svg" xmlns:xlink="http://www.w3.org/1999/xlink" x="0px" y="0px"
	 width="1089.333px" height="390px" viewBox="0 0 1089.333 390" enable-background="new 0 0 1089.333 390" xml:space="preserve">
<g>
	<path fill="#00A1E4" d="M36.326,35.39h15.6c1.8,0,3.45,0.13,4.95,0.39c1.5,0.261,2.799,0.741,3.9,1.44c1.1,0.7,1.95,1.66,2.55,2.88
		c0.6,1.221,0.9,2.79,0.9,4.71c0,3.04-0.92,5.55-2.76,7.53c-1.84,1.98-4.341,3.15-7.5,3.51v0.12c5.319,0.84,7.98,3.96,7.98,9.36
		c0,1.48-0.28,2.98-0.84,4.5c-0.561,1.521-1.45,2.9-2.67,4.14c-1.221,1.24-2.82,2.26-4.8,3.06c-1.98,0.801-4.41,1.2-7.29,1.2h-19.14
		L36.326,35.39z M30.326,75.95h16.02c2.04,0,3.87-0.26,5.49-0.78c1.62-0.52,2.979-1.26,4.08-2.22c1.1-0.96,1.94-2.1,2.52-3.42
		c0.58-1.32,0.87-2.779,0.87-4.38c0-2.919-0.84-4.989-2.52-6.21c-1.68-1.22-4.38-1.83-8.1-1.83h-14.34L30.326,75.95z M34.826,54.83
		h14.34c3.84,0,6.87-0.85,9.09-2.55c2.22-1.7,3.33-4.11,3.33-7.23c0-1.64-0.25-2.949-0.75-3.93c-0.5-0.98-1.19-1.72-2.07-2.22
		c-0.88-0.5-1.93-0.83-3.15-0.99c-1.221-0.16-2.53-0.24-3.93-0.24h-13.2L34.826,54.83z"/>
	<path fill="#00A1E4" d="M87.746,78.23h-2.28l1.44-6.48l-0.12-0.12c-0.681,1.161-1.401,2.19-2.16,3.09
		c-0.76,0.9-1.62,1.67-2.58,2.31c-0.96,0.641-2.031,1.121-3.21,1.44c-1.18,0.319-2.55,0.48-4.11,0.48c-1.161,0-2.271-0.19-3.33-0.57
		c-1.061-0.379-1.99-0.939-2.79-1.68c-0.801-0.74-1.44-1.64-1.92-2.7c-0.48-1.06-0.72-2.25-0.72-3.57c0-0.36,0.03-0.819,0.09-1.38
		c0.06-0.56,0.14-1.14,0.24-1.74c0.1-0.6,0.2-1.17,0.3-1.71c0.1-0.54,0.189-0.99,0.27-1.35l3.78-16.86h2.28l-3.78,16.8
		c-0.081,0.28-0.171,0.681-0.27,1.2c-0.101,0.52-0.201,1.08-0.3,1.68c-0.1,0.6-0.18,1.191-0.24,1.77
		c-0.06,0.581-0.09,1.09-0.09,1.53c0,1.96,0.63,3.55,1.89,4.77c1.26,1.221,3.05,1.83,5.37,1.83c1.839,0,3.51-0.459,5.01-1.38
		c1.5-0.919,2.82-2.109,3.96-3.57c1.14-1.46,2.079-3.08,2.82-4.86c0.74-1.78,1.29-3.53,1.65-5.25l3.06-14.52h2.28L87.746,78.23z"/>
	<path fill="#00A1E4" d="M130.286,35.39l-9.12,42.84h-2.28l1.62-6.9l-0.12-0.12c-1.161,2.4-2.71,4.29-4.65,5.67
		c-1.94,1.38-4.29,2.07-7.05,2.07c-1.92,0-3.61-0.321-5.07-0.96c-1.461-0.639-2.681-1.52-3.66-2.64c-0.98-1.12-1.71-2.41-2.19-3.87
		c-0.48-1.459-0.72-3.009-0.72-4.65c0-2.319,0.35-4.68,1.05-7.08c0.699-2.4,1.76-4.569,3.18-6.51c1.419-1.939,3.18-3.519,5.28-4.74
		c2.1-1.22,4.55-1.83,7.35-1.83c2.64,0,4.869,0.72,6.69,2.16c1.819,1.44,2.87,3.44,3.15,6h0.12l4.14-19.44H130.286z M109.166,76.97
		c2.199,0,4.149-0.63,5.85-1.89c1.7-1.26,3.11-2.85,4.23-4.77c1.119-1.92,1.97-4,2.55-6.24c0.58-2.24,0.87-4.339,0.87-6.3
		c0-1.12-0.19-2.229-0.57-3.33c-0.381-1.1-0.93-2.079-1.65-2.94c-0.72-0.86-1.611-1.55-2.67-2.07c-1.06-0.52-2.25-0.78-3.57-0.78
		c-2.44,0-4.581,0.561-6.42,1.68c-1.84,1.12-3.39,2.541-4.65,4.26c-1.26,1.72-2.211,3.63-2.85,5.73c-0.641,2.1-0.96,4.11-0.96,6.03
		c0,1.36,0.14,2.68,0.42,3.96c0.279,1.281,0.79,2.41,1.53,3.39c0.74,0.98,1.74,1.77,3,2.37
		C105.536,76.67,107.165,76.97,109.166,76.97z"/>
	<path fill="#00A1E4" d="M163.646,35.39l-9.12,42.84h-2.28l1.62-6.9l-0.12-0.12c-1.161,2.4-2.71,4.29-4.65,5.67
		c-1.94,1.38-4.29,2.07-7.05,2.07c-1.92,0-3.61-0.321-5.07-0.96c-1.461-0.639-2.681-1.52-3.66-2.64c-0.98-1.12-1.71-2.41-2.19-3.87
		c-0.48-1.459-0.72-3.009-0.72-4.65c0-2.319,0.35-4.68,1.05-7.08c0.699-2.4,1.76-4.569,3.18-6.51c1.419-1.939,3.18-3.519,5.28-4.74
		c2.1-1.22,4.55-1.83,7.35-1.83c2.64,0,4.869,0.72,6.69,2.16c1.819,1.44,2.87,3.44,3.15,6h0.12l4.14-19.44H163.646z M142.525,76.97
		c2.199,0,4.149-0.63,5.85-1.89c1.7-1.26,3.11-2.85,4.23-4.77c1.119-1.92,1.97-4,2.55-6.24c0.58-2.24,0.87-4.339,0.87-6.3
		c0-1.12-0.19-2.229-0.57-3.33c-0.381-1.1-0.93-2.079-1.65-2.94c-0.72-0.86-1.611-1.55-2.67-2.07c-1.06-0.52-2.25-0.78-3.57-0.78
		c-2.44,0-4.581,0.561-6.42,1.68c-1.84,1.12-3.39,2.541-4.65,4.26c-1.26,1.72-2.211,3.63-2.85,5.73c-0.641,2.1-0.96,4.11-0.96,6.03
		c0,1.36,0.14,2.68,0.42,3.96c0.279,1.281,0.79,2.41,1.53,3.39c0.74,0.98,1.74,1.77,3,2.37
		C138.896,76.67,140.525,76.97,142.525,76.97z"/>
	<path fill="#00A1E4" d="M159.385,87.11c0.76,0.12,1.48,0.18,2.16,0.18c1.479,0,2.66-0.42,3.54-1.26c0.879-0.84,1.68-1.84,2.4-3
		l3-4.8l-6.06-30.84h2.64l5.16,27.78l15.72-27.78h2.7l-20.94,36.24c-0.52,0.92-1.041,1.73-1.56,2.43
		c-0.521,0.699-1.101,1.29-1.74,1.77c-0.64,0.48-1.36,0.84-2.16,1.08c-0.8,0.24-1.759,0.36-2.88,0.36c-0.48,0-0.93-0.021-1.35-0.06
		c-0.42-0.041-0.789-0.081-1.11-0.12L159.385,87.11z"/>
	<path fill="#78D2F7" d="M192.325,64.13c-0.04,0.201-0.06,0.621-0.06,1.26v1.26c0,1.32,0.24,2.601,0.72,3.84
		c0.48,1.241,1.23,2.34,2.25,3.3s2.34,1.73,3.96,2.31c1.62,0.58,3.57,0.87,5.85,0.87c1.879,0,3.649-0.189,5.31-0.57
		c1.659-0.379,3.109-0.969,4.35-1.77c1.239-0.8,2.22-1.85,2.94-3.15c0.72-1.299,1.08-2.87,1.08-4.71c0-1.56-0.39-2.859-1.17-3.9
		c-0.78-1.04-1.75-1.92-2.91-2.64c-1.161-0.72-2.421-1.299-3.78-1.74c-1.36-0.439-2.64-0.84-3.84-1.2
		c-1.36-0.399-2.74-0.86-4.14-1.38c-1.4-0.52-2.67-1.19-3.81-2.01c-1.14-0.819-2.07-1.86-2.79-3.12c-0.72-1.26-1.08-2.85-1.08-4.77
		c0-1.92,0.42-3.609,1.26-5.07c0.84-1.459,1.97-2.679,3.39-3.66c1.419-0.979,3.06-1.71,4.92-2.19s3.79-0.72,5.79-0.72
		c1.92,0,3.74,0.22,5.46,0.66c1.719,0.441,3.229,1.11,4.53,2.01c1.299,0.9,2.33,2.02,3.09,3.36c0.759,1.341,1.14,2.931,1.14,4.77
		c0,0.4-0.01,0.771-0.03,1.11c-0.021,0.34-0.07,0.791-0.15,1.35h-2.64c0.08-0.6,0.129-1.029,0.15-1.29
		c0.02-0.26,0.03-0.57,0.03-0.93c0-1.52-0.321-2.83-0.96-3.93c-0.641-1.1-1.5-2.01-2.58-2.73s-2.32-1.25-3.72-1.59
		c-1.4-0.339-2.86-0.51-4.38-0.51c-1.44,0-2.91,0.16-4.41,0.48c-1.5,0.321-2.86,0.851-4.08,1.59c-1.22,0.74-2.22,1.71-3,2.91
		c-0.78,1.2-1.17,2.661-1.17,4.38c0,1.601,0.33,2.92,0.99,3.96c0.66,1.041,1.539,1.91,2.64,2.61c1.1,0.7,2.349,1.27,3.75,1.71
		c1.399,0.44,2.839,0.86,4.32,1.26c1.479,0.441,2.93,0.921,4.35,1.44c1.419,0.521,2.679,1.2,3.78,2.04
		c1.1,0.84,1.989,1.871,2.67,3.09c0.68,1.221,1.02,2.73,1.02,4.53c0,2.081-0.42,3.9-1.26,5.46c-0.84,1.56-2.001,2.871-3.48,3.93
		c-1.48,1.06-3.22,1.86-5.22,2.4c-2,0.54-4.161,0.81-6.48,0.81c-2.08,0-4.05-0.27-5.91-0.81c-1.86-0.54-3.48-1.32-4.86-2.34
		s-2.48-2.28-3.3-3.78c-0.82-1.5-1.23-3.229-1.23-5.19c0-0.519-0.01-1.02-0.03-1.5c-0.021-0.48-0.01-0.979,0.03-1.5H192.325z"/>
	<path fill="#78D2F7" d="M248.964,78.23h-2.28l1.44-6.48l-0.12-0.12c-0.681,1.161-1.401,2.19-2.16,3.09
		c-0.76,0.9-1.62,1.67-2.58,2.31c-0.96,0.641-2.031,1.121-3.21,1.44c-1.18,0.319-2.55,0.48-4.11,0.48c-1.161,0-2.271-0.19-3.33-0.57
		c-1.061-0.379-1.99-0.939-2.79-1.68c-0.801-0.74-1.44-1.64-1.92-2.7c-0.48-1.06-0.72-2.25-0.72-3.57c0-0.36,0.03-0.819,0.09-1.38
		c0.06-0.56,0.14-1.14,0.24-1.74c0.1-0.6,0.2-1.17,0.3-1.71c0.1-0.54,0.189-0.99,0.27-1.35l3.78-16.86h2.28l-3.78,16.8
		c-0.081,0.28-0.171,0.681-0.27,1.2c-0.101,0.52-0.201,1.08-0.3,1.68c-0.1,0.6-0.18,1.191-0.24,1.77
		c-0.06,0.581-0.09,1.09-0.09,1.53c0,1.96,0.63,3.55,1.89,4.77c1.26,1.221,3.05,1.83,5.37,1.83c1.839,0,3.51-0.459,5.01-1.38
		c1.5-0.919,2.82-2.109,3.96-3.57c1.14-1.46,2.079-3.08,2.82-4.86c0.74-1.78,1.29-3.53,1.65-5.25l3.06-14.52h2.28L248.964,78.23z"/>
	<path fill="#78D2F7" d="M263.424,47.39h2.28l-6.42,30.84h-2.28L263.424,47.39z M265.944,35.39h2.28l-1.26,6.18h-2.28L265.944,35.39
		z"/>
	<path fill="#78D2F7" d="M269.064,47.39h5.7l2.1-9.66h2.28l-2.1,9.66h6.6l-0.48,1.98h-6.48l-4.68,21.48
		c-0.041,0.081-0.081,0.25-0.12,0.51c-0.04,0.261-0.09,0.54-0.15,0.84c-0.06,0.3-0.111,0.59-0.15,0.87
		c-0.041,0.28-0.06,0.48-0.06,0.6c0,0.88,0.27,1.53,0.81,1.95s1.43,0.63,2.67,0.63c1.119,0,2.259-0.06,3.42-0.18l-0.42,1.98
		c-0.4,0-0.94,0.03-1.62,0.09c-0.681,0.06-1.38,0.09-2.1,0.09c-1.8,0-3.09-0.399-3.87-1.2c-0.78-0.799-1.17-1.939-1.17-3.42
		c0-0.399,0.06-0.879,0.18-1.44c0.12-0.56,0.219-1.059,0.3-1.5l4.68-21.3h-5.82L269.064,47.39z"/>
	<path fill="#78D2F7" d="M285.563,63.11c-0.081,0.561-0.15,1.121-0.21,1.68c-0.06,0.561-0.09,1.12-0.09,1.68
		c0,1.4,0.219,2.74,0.66,4.02c0.44,1.281,1.07,2.4,1.89,3.36c0.819,0.96,1.839,1.72,3.06,2.28c1.22,0.561,2.61,0.84,4.17,0.84
		c1.44,0,2.81-0.25,4.11-0.75c1.3-0.5,2.46-1.16,3.48-1.98c1.02-0.819,1.879-1.77,2.58-2.85c0.7-1.08,1.19-2.22,1.47-3.42h2.28
		c-0.44,1.6-1.08,3.07-1.92,4.41c-0.84,1.341-1.86,2.5-3.06,3.48c-1.2,0.981-2.57,1.74-4.11,2.28c-1.541,0.54-3.23,0.81-5.07,0.81
		c-1.96,0-3.681-0.321-5.16-0.96c-1.48-0.639-2.71-1.52-3.69-2.64c-0.98-1.12-1.72-2.42-2.22-3.9c-0.5-1.479-0.75-3.04-0.75-4.68
		c0-2.88,0.38-5.54,1.14-7.98c0.759-2.439,1.839-4.56,3.24-6.36c1.399-1.8,3.12-3.21,5.16-4.23s4.32-1.53,6.84-1.53
		c1.8,0,3.399,0.3,4.8,0.9c1.4,0.6,2.58,1.431,3.54,2.49c0.96,1.06,1.689,2.32,2.19,3.78c0.5,1.461,0.75,3.03,0.75,4.71
		c0,0.801-0.041,1.57-0.12,2.31c-0.081,0.741-0.18,1.491-0.3,2.25H285.563z M308.063,61.13c0.08-0.519,0.15-0.979,0.21-1.38
		c0.06-0.399,0.09-0.8,0.09-1.2c0-1.32-0.19-2.58-0.57-3.78c-0.38-1.2-0.951-2.25-1.71-3.15c-0.76-0.9-1.74-1.62-2.94-2.16
		s-2.601-0.81-4.2-0.81c-1.8,0-3.43,0.34-4.89,1.02c-1.461,0.681-2.73,1.601-3.81,2.76c-1.08,1.161-1.98,2.49-2.7,3.99
		c-0.72,1.5-1.26,3.07-1.62,4.71H308.063z"/>
</g>
<g>
	<path fill="#A1CD3A" d="M31.106,135.183c-0.04,0.201-0.06,0.621-0.06,1.26v1.26c0,1.32,0.24,2.601,0.72,3.84
		c0.48,1.241,1.23,2.34,2.25,3.3s2.34,1.73,3.96,2.31c1.62,0.58,3.57,0.87,5.85,0.87c1.879,0,3.649-0.189,5.31-0.57
		c1.659-0.379,3.109-0.969,4.35-1.77c1.239-0.8,2.22-1.85,2.94-3.15c0.72-1.299,1.08-2.87,1.08-4.71c0-1.56-0.39-2.859-1.17-3.9
		c-0.78-1.04-1.75-1.92-2.91-2.64c-1.161-0.72-2.421-1.299-3.78-1.74c-1.36-0.439-2.64-0.84-3.84-1.2
		c-1.36-0.399-2.74-0.86-4.14-1.38c-1.4-0.52-2.67-1.19-3.81-2.01c-1.14-0.819-2.07-1.86-2.79-3.12c-0.72-1.26-1.08-2.85-1.08-4.77
		c0-1.92,0.42-3.609,1.26-5.07c0.84-1.459,1.97-2.679,3.39-3.66c1.419-0.979,3.06-1.71,4.92-2.19s3.79-0.72,5.79-0.72
		c1.92,0,3.74,0.22,5.46,0.66c1.719,0.441,3.229,1.11,4.53,2.01c1.299,0.9,2.33,2.02,3.09,3.36c0.759,1.341,1.14,2.931,1.14,4.77
		c0,0.4-0.01,0.771-0.03,1.11c-0.021,0.34-0.07,0.791-0.15,1.35h-2.64c0.08-0.6,0.129-1.029,0.15-1.29
		c0.02-0.26,0.03-0.57,0.03-0.93c0-1.52-0.321-2.83-0.96-3.93c-0.641-1.1-1.5-2.01-2.58-2.73s-2.32-1.25-3.72-1.59
		c-1.4-0.339-2.86-0.51-4.38-0.51c-1.44,0-2.91,0.16-4.41,0.48c-1.5,0.321-2.86,0.851-4.08,1.59c-1.22,0.74-2.22,1.71-3,2.91
		c-0.78,1.2-1.17,2.661-1.17,4.38c0,1.601,0.33,2.92,0.99,3.96c0.66,1.041,1.539,1.91,2.64,2.61c1.1,0.7,2.349,1.27,3.75,1.71
		c1.399,0.44,2.839,0.86,4.32,1.26c1.479,0.441,2.93,0.921,4.35,1.44c1.419,0.521,2.679,1.2,3.78,2.04
		c1.1,0.84,1.989,1.871,2.67,3.09c0.68,1.221,1.02,2.73,1.02,4.53c0,2.081-0.42,3.9-1.26,5.46c-0.84,1.56-2.001,2.871-3.48,3.93
		c-1.48,1.06-3.22,1.86-5.22,2.4c-2,0.54-4.161,0.81-6.48,0.81c-2.08,0-4.05-0.27-5.91-0.81c-1.86-0.54-3.48-1.32-4.86-2.34
		s-2.48-2.28-3.3-3.78c-0.82-1.5-1.23-3.229-1.23-5.19c0-0.519-0.01-1.02-0.03-1.5c-0.021-0.48-0.01-0.979,0.03-1.5H31.106z"/>
	<path fill="#A1CD3A" d="M68.485,134.163c-0.081,0.561-0.15,1.121-0.21,1.68c-0.06,0.561-0.09,1.12-0.09,1.68
		c0,1.4,0.219,2.74,0.66,4.02c0.44,1.281,1.07,2.4,1.89,3.36c0.819,0.96,1.839,1.72,3.06,2.28c1.22,0.561,2.61,0.84,4.17,0.84
		c1.44,0,2.81-0.25,4.11-0.75c1.3-0.5,2.46-1.16,3.48-1.98c1.02-0.819,1.879-1.77,2.58-2.85c0.7-1.08,1.19-2.22,1.47-3.42h2.28
		c-0.44,1.6-1.08,3.07-1.92,4.41c-0.84,1.341-1.86,2.5-3.06,3.48c-1.2,0.981-2.57,1.74-4.11,2.28c-1.541,0.54-3.23,0.81-5.07,0.81
		c-1.96,0-3.681-0.321-5.16-0.96c-1.48-0.639-2.71-1.52-3.69-2.64c-0.98-1.12-1.72-2.42-2.22-3.9c-0.5-1.479-0.75-3.04-0.75-4.68
		c0-2.88,0.38-5.54,1.14-7.98c0.759-2.439,1.839-4.56,3.24-6.36c1.399-1.8,3.12-3.21,5.16-4.23s4.32-1.53,6.84-1.53
		c1.8,0,3.399,0.3,4.8,0.9c1.4,0.6,2.58,1.431,3.54,2.49c0.96,1.06,1.689,2.32,2.19,3.78c0.5,1.461,0.75,3.03,0.75,4.71
		c0,0.801-0.041,1.57-0.12,2.31c-0.081,0.741-0.18,1.491-0.3,2.25H68.485z M90.985,132.183c0.08-0.519,0.15-0.979,0.21-1.38
		c0.06-0.399,0.09-0.8,0.09-1.2c0-1.32-0.19-2.58-0.57-3.78c-0.38-1.2-0.951-2.25-1.71-3.15c-0.76-0.9-1.74-1.62-2.94-2.16
		s-2.601-0.81-4.2-0.81c-1.8,0-3.43,0.34-4.89,1.02c-1.461,0.681-2.73,1.601-3.81,2.76c-1.08,1.161-1.98,2.49-2.7,3.99
		c-0.72,1.5-1.26,3.07-1.62,4.71H90.985z"/>
	<path fill="#A1CD3A" d="M118.765,160.323h-2.28l4.02-17.94l-0.12-0.12c-1.161,2.4-2.71,4.29-4.65,5.67
		c-1.94,1.38-4.29,2.07-7.05,2.07c-1.92,0-3.61-0.321-5.07-0.96c-1.461-0.639-2.681-1.52-3.66-2.64c-0.98-1.12-1.71-2.41-2.19-3.87
		c-0.48-1.459-0.72-3.009-0.72-4.65c0-2.319,0.35-4.68,1.05-7.08c0.699-2.4,1.76-4.569,3.18-6.51c1.419-1.939,3.18-3.519,5.28-4.74
		c2.1-1.22,4.55-1.83,7.35-1.83c2.64,0,4.869,0.72,6.69,2.16c1.819,1.44,2.87,3.44,3.15,6h0.12l1.56-7.44h2.28L118.765,160.323z
		 M109.165,148.023c2.199,0,4.149-0.63,5.85-1.89c1.7-1.26,3.11-2.85,4.23-4.77c1.119-1.92,1.97-4,2.55-6.24
		c0.58-2.24,0.87-4.339,0.87-6.3c0-1.12-0.19-2.229-0.57-3.33c-0.381-1.1-0.93-2.079-1.65-2.94c-0.72-0.86-1.611-1.55-2.67-2.07
		c-1.06-0.52-2.25-0.78-3.57-0.78c-2.44,0-4.581,0.561-6.42,1.68c-1.84,1.12-3.39,2.541-4.65,4.26c-1.26,1.72-2.211,3.63-2.85,5.73
		c-0.641,2.1-0.96,4.11-0.96,6.03c0,1.36,0.14,2.68,0.42,3.96c0.279,1.281,0.79,2.41,1.53,3.39c0.74,0.98,1.74,1.77,3,2.37
		C105.535,147.723,107.165,148.023,109.165,148.023z"/>
	<path fill="#78D2F7" d="M138.625,106.443h15.6c1.8,0,3.45,0.13,4.95,0.39c1.5,0.261,2.799,0.741,3.9,1.44
		c1.1,0.7,1.95,1.66,2.55,2.88c0.6,1.221,0.9,2.79,0.9,4.71c0,3.04-0.92,5.55-2.76,7.53c-1.84,1.98-4.341,3.15-7.5,3.51v0.12
		c5.319,0.84,7.98,3.96,7.98,9.36c0,1.48-0.28,2.98-0.84,4.5c-0.561,1.521-1.45,2.9-2.67,4.14c-1.221,1.24-2.82,2.26-4.8,3.06
		c-1.98,0.801-4.41,1.2-7.29,1.2h-19.14L138.625,106.443z M132.625,147.003h16.02c2.04,0,3.87-0.26,5.49-0.78
		c1.62-0.52,2.979-1.26,4.08-2.22c1.1-0.96,1.94-2.1,2.52-3.42c0.58-1.32,0.87-2.779,0.87-4.38c0-2.919-0.84-4.989-2.52-6.21
		c-1.68-1.22-4.38-1.83-8.1-1.83h-14.34L132.625,147.003z M137.125,125.883h14.34c3.84,0,6.87-0.85,9.09-2.55
		c2.22-1.7,3.33-4.11,3.33-7.23c0-1.64-0.25-2.949-0.75-3.93c-0.5-0.98-1.19-1.72-2.07-2.22c-0.88-0.5-1.93-0.83-3.15-0.99
		c-1.221-0.16-2.53-0.24-3.93-0.24h-13.2L137.125,125.883z"/>
	<path fill="#78D2F7" d="M190.045,149.283h-2.28l1.44-6.48l-0.12-0.12c-0.681,1.161-1.401,2.19-2.16,3.09
		c-0.76,0.9-1.62,1.67-2.58,2.31c-0.96,0.641-2.031,1.121-3.21,1.44c-1.18,0.319-2.55,0.48-4.11,0.48c-1.161,0-2.271-0.19-3.33-0.57
		c-1.061-0.379-1.99-0.939-2.79-1.68c-0.801-0.74-1.44-1.64-1.92-2.7c-0.48-1.06-0.72-2.25-0.72-3.57c0-0.36,0.03-0.819,0.09-1.38
		c0.06-0.56,0.14-1.14,0.24-1.74c0.1-0.6,0.2-1.17,0.3-1.71c0.1-0.54,0.189-0.99,0.27-1.35l3.78-16.86h2.28l-3.78,16.8
		c-0.081,0.28-0.171,0.681-0.27,1.2c-0.101,0.52-0.201,1.08-0.3,1.68c-0.1,0.6-0.18,1.191-0.24,1.77
		c-0.06,0.581-0.09,1.09-0.09,1.53c0,1.96,0.63,3.55,1.89,4.77c1.26,1.221,3.05,1.83,5.37,1.83c1.839,0,3.51-0.459,5.01-1.38
		c1.5-0.919,2.82-2.109,3.96-3.57c1.14-1.46,2.079-3.08,2.82-4.86c0.74-1.78,1.29-3.53,1.65-5.25l3.06-14.52h2.28L190.045,149.283z"
		/>
	<path fill="#78D2F7" d="M232.584,106.443l-9.12,42.84h-2.28l1.62-6.9l-0.12-0.12c-1.161,2.4-2.71,4.29-4.65,5.67
		c-1.94,1.38-4.29,2.07-7.05,2.07c-1.92,0-3.61-0.321-5.07-0.96c-1.461-0.639-2.681-1.52-3.66-2.64c-0.98-1.12-1.71-2.41-2.19-3.87
		c-0.48-1.459-0.72-3.009-0.72-4.65c0-2.319,0.35-4.68,1.05-7.08c0.699-2.4,1.76-4.569,3.18-6.51c1.419-1.939,3.18-3.519,5.28-4.74
		c2.1-1.22,4.55-1.83,7.35-1.83c2.64,0,4.869,0.72,6.69,2.16c1.819,1.44,2.87,3.44,3.15,6h0.12l4.14-19.44H232.584z
		 M211.464,148.023c2.199,0,4.149-0.63,5.85-1.89c1.7-1.26,3.11-2.85,4.23-4.77c1.119-1.92,1.97-4,2.55-6.24
		c0.58-2.24,0.87-4.339,0.87-6.3c0-1.12-0.19-2.229-0.57-3.33c-0.381-1.1-0.93-2.079-1.65-2.94c-0.72-0.86-1.611-1.55-2.67-2.07
		c-1.06-0.52-2.25-0.78-3.57-0.78c-2.44,0-4.581,0.561-6.42,1.68c-1.84,1.12-3.39,2.541-4.65,4.26c-1.26,1.72-2.211,3.63-2.85,5.73
		c-0.641,2.1-0.96,4.11-0.96,6.03c0,1.36,0.14,2.68,0.42,3.96c0.279,1.281,0.79,2.41,1.53,3.39c0.74,0.98,1.74,1.77,3,2.37
		C207.834,147.723,209.464,148.023,211.464,148.023z"/>
	<path fill="#78D2F7" d="M265.944,106.443l-9.12,42.84h-2.28l1.62-6.9l-0.12-0.12c-1.161,2.4-2.71,4.29-4.65,5.67
		c-1.94,1.38-4.29,2.07-7.05,2.07c-1.92,0-3.61-0.321-5.07-0.96c-1.461-0.639-2.681-1.52-3.66-2.64c-0.98-1.12-1.71-2.41-2.19-3.87
		c-0.48-1.459-0.72-3.009-0.72-4.65c0-2.319,0.35-4.68,1.05-7.08c0.699-2.4,1.76-4.569,3.18-6.51c1.419-1.939,3.18-3.519,5.28-4.74
		c2.1-1.22,4.55-1.83,7.35-1.83c2.64,0,4.869,0.72,6.69,2.16c1.819,1.44,2.87,3.44,3.15,6h0.12l4.14-19.44H265.944z
		 M244.824,148.023c2.199,0,4.149-0.63,5.85-1.89c1.7-1.26,3.11-2.85,4.23-4.77c1.119-1.92,1.97-4,2.55-6.24
		c0.58-2.24,0.87-4.339,0.87-6.3c0-1.12-0.19-2.229-0.57-3.33c-0.381-1.1-0.93-2.079-1.65-2.94c-0.72-0.86-1.611-1.55-2.67-2.07
		c-1.06-0.52-2.25-0.78-3.57-0.78c-2.44,0-4.581,0.561-6.42,1.68c-1.84,1.12-3.39,2.541-4.65,4.26c-1.26,1.72-2.211,3.63-2.85,5.73
		c-0.641,2.1-0.96,4.11-0.96,6.03c0,1.36,0.14,2.68,0.42,3.96c0.279,1.281,0.79,2.41,1.53,3.39c0.74,0.98,1.74,1.77,3,2.37
		C241.194,147.723,242.824,148.023,244.824,148.023z"/>
	<path fill="#78D2F7" d="M261.685,158.163c0.76,0.12,1.48,0.18,2.16,0.18c1.479,0,2.66-0.42,3.54-1.26c0.879-0.84,1.68-1.84,2.4-3
		l3-4.8l-6.06-30.84h2.64l5.16,27.78l15.72-27.78h2.7l-20.94,36.24c-0.52,0.92-1.041,1.73-1.56,2.43
		c-0.521,0.699-1.101,1.29-1.74,1.77c-0.64,0.48-1.36,0.84-2.16,1.08c-0.8,0.24-1.759,0.36-2.88,0.36c-0.48,0-0.93-0.021-1.35-0.06
		c-0.42-0.041-0.789-0.081-1.11-0.12L261.685,158.163z"/>
</g>
<g>
	<path fill="#F7941E" d="M29.846,220.862h-2.64l9.18-42.84h13.32c2.04,0,3.939,0.12,5.7,0.36c1.76,0.24,3.29,0.73,4.59,1.47
		c1.299,0.74,2.319,1.791,3.06,3.15c0.74,1.36,1.11,3.141,1.11,5.34c0,2.361-0.42,4.39-1.26,6.09c-0.84,1.701-1.971,3.09-3.39,4.17
		c-1.42,1.08-3.081,1.88-4.98,2.4c-1.9,0.52-3.91,0.78-6.03,0.78h-14.58L29.846,220.862z M34.406,199.502h15
		c1.68,0,3.26-0.24,4.74-0.72c1.479-0.48,2.76-1.189,3.84-2.13c1.08-0.939,1.939-2.109,2.58-3.51c0.64-1.399,0.96-3,0.96-4.8
		c0-1.92-0.34-3.41-1.02-4.47c-0.681-1.059-1.601-1.86-2.76-2.4c-1.161-0.54-2.49-0.87-3.99-0.99s-3.09-0.18-4.77-0.18h-10.44
		L34.406,199.502z"/>
	<path fill="#F7941E" d="M71.485,178.022h2.28l-3.96,18.48h0.12c1.359-2.16,3.08-3.9,5.16-5.22c2.079-1.32,4.5-1.98,7.26-1.98
		c1.16,0,2.27,0.19,3.33,0.57c1.059,0.381,1.989,0.94,2.79,1.68c0.8,0.741,1.44,1.641,1.92,2.7c0.48,1.06,0.72,2.25,0.72,3.57
		c0,0.36-0.03,0.82-0.09,1.38c-0.06,0.561-0.141,1.14-0.24,1.74c-0.101,0.6-0.201,1.17-0.3,1.71c-0.1,0.54-0.19,0.99-0.27,1.35
		l-3.78,16.86h-2.28l3.78-16.8c0.039-0.28,0.109-0.68,0.21-1.2c0.099-0.52,0.2-1.07,0.3-1.65c0.1-0.58,0.189-1.17,0.27-1.77
		c0.08-0.6,0.12-1.12,0.12-1.56c0-1.959-0.63-3.549-1.89-4.77c-1.26-1.22-3.05-1.83-5.37-1.83c-1.96,0-3.711,0.46-5.25,1.38
		c-1.541,0.921-2.88,2.11-4.02,3.57c-1.14,1.46-2.091,3.081-2.85,4.86c-0.76,1.78-1.32,3.531-1.68,5.25l-3.06,14.52h-2.28
		L71.485,178.022z"/>
	<path fill="#F7941E" d="M90.445,229.742c0.76,0.12,1.48,0.18,2.16,0.18c1.479,0,2.66-0.42,3.54-1.26c0.879-0.84,1.68-1.84,2.4-3
		l3-4.8l-6.06-30.84h2.64l5.16,27.78l15.72-27.78h2.7l-20.94,36.24c-0.52,0.92-1.041,1.73-1.56,2.43
		c-0.521,0.699-1.101,1.29-1.74,1.77c-0.64,0.48-1.36,0.84-2.16,1.08c-0.8,0.24-1.759,0.36-2.88,0.36c-0.48,0-0.93-0.021-1.35-0.06
		c-0.42-0.041-0.789-0.081-1.11-0.12L90.445,229.742z"/>
	<path fill="#F7941E" d="M128.065,178.022h2.28l-8.94,42.84h-2.28L128.065,178.022z"/>
	<path fill="#F7941E" d="M147.024,189.302c3.84,0,6.83,1.061,8.97,3.18c2.139,2.121,3.21,5.1,3.21,8.94c0,2.36-0.351,4.74-1.05,7.14
		c-0.7,2.4-1.74,4.56-3.12,6.48c-1.38,1.92-3.101,3.49-5.16,4.71c-2.061,1.22-4.431,1.83-7.11,1.83c-2.121,0-3.951-0.311-5.49-0.93
		c-1.54-0.62-2.82-1.5-3.84-2.64s-1.78-2.5-2.28-4.08c-0.5-1.58-0.75-3.35-0.75-5.31c0-2.319,0.38-4.64,1.14-6.96
		c0.759-2.319,1.85-4.389,3.27-6.21c1.419-1.819,3.159-3.3,5.22-4.44C142.094,189.872,144.424,189.302,147.024,189.302z
		 M147.504,191.282c-2.36-0.039-4.46,0.45-6.3,1.47c-1.84,1.02-3.39,2.35-4.65,3.99c-1.26,1.641-2.22,3.49-2.88,5.55
		c-0.66,2.061-0.99,4.11-0.99,6.15c0,1.56,0.189,3.01,0.57,4.35c0.38,1.34,0.98,2.52,1.8,3.54c0.819,1.02,1.86,1.82,3.12,2.4
		c1.26,0.58,2.77,0.87,4.53,0.87c2.359,0,4.43-0.57,6.21-1.71c1.779-1.14,3.26-2.589,4.44-4.35c1.179-1.76,2.07-3.71,2.67-5.85
		c0.6-2.14,0.9-4.209,0.9-6.21c0-3.04-0.76-5.48-2.28-7.32C153.124,192.322,150.745,191.362,147.504,191.282z"/>
	<path fill="#78D2F7" d="M170.844,178.022h15.6c1.8,0,3.45,0.13,4.95,0.39c1.5,0.261,2.799,0.741,3.9,1.44
		c1.1,0.7,1.95,1.66,2.55,2.88c0.6,1.221,0.9,2.79,0.9,4.71c0,3.04-0.92,5.55-2.76,7.53c-1.84,1.98-4.341,3.15-7.5,3.51v0.12
		c5.319,0.84,7.98,3.96,7.98,9.36c0,1.48-0.28,2.98-0.84,4.5c-0.561,1.521-1.45,2.9-2.67,4.14c-1.221,1.24-2.82,2.26-4.8,3.06
		c-1.98,0.801-4.41,1.2-7.29,1.2h-19.14L170.844,178.022z M164.844,218.582h16.02c2.04,0,3.87-0.26,5.49-0.78
		c1.62-0.52,2.979-1.26,4.08-2.22c1.1-0.96,1.94-2.1,2.52-3.42c0.58-1.32,0.87-2.779,0.87-4.38c0-2.919-0.84-4.989-2.52-6.21
		c-1.68-1.22-4.38-1.83-8.1-1.83h-14.34L164.844,218.582z M169.344,197.462h14.34c3.84,0,6.87-0.85,9.09-2.55
		c2.22-1.7,3.33-4.11,3.33-7.23c0-1.64-0.25-2.949-0.75-3.93c-0.5-0.98-1.19-1.72-2.07-2.22c-0.88-0.5-1.93-0.83-3.15-0.99
		c-1.221-0.16-2.53-0.24-3.93-0.24h-13.2L169.344,197.462z"/>
	<path fill="#78D2F7" d="M222.263,220.862h-2.28l1.44-6.48l-0.12-0.12c-0.681,1.161-1.401,2.19-2.16,3.09
		c-0.76,0.9-1.62,1.67-2.58,2.31c-0.96,0.641-2.031,1.121-3.21,1.44c-1.18,0.319-2.55,0.48-4.11,0.48c-1.161,0-2.271-0.19-3.33-0.57
		c-1.061-0.379-1.99-0.939-2.79-1.68c-0.801-0.74-1.44-1.64-1.92-2.7c-0.48-1.06-0.72-2.25-0.72-3.57c0-0.36,0.03-0.819,0.09-1.38
		c0.06-0.56,0.14-1.14,0.24-1.74c0.1-0.6,0.2-1.17,0.3-1.71c0.1-0.54,0.189-0.99,0.27-1.35l3.78-16.86h2.28l-3.78,16.8
		c-0.081,0.28-0.171,0.681-0.27,1.2c-0.101,0.52-0.201,1.08-0.3,1.68c-0.1,0.6-0.18,1.191-0.24,1.77
		c-0.06,0.581-0.09,1.09-0.09,1.53c0,1.96,0.63,3.55,1.89,4.77c1.26,1.221,3.05,1.83,5.37,1.83c1.839,0,3.51-0.459,5.01-1.38
		c1.5-0.919,2.82-2.109,3.96-3.57c1.14-1.46,2.079-3.08,2.82-4.86c0.74-1.78,1.29-3.53,1.65-5.25l3.06-14.52h2.28L222.263,220.862z"
		/>
	<path fill="#78D2F7" d="M264.803,178.022l-9.12,42.84h-2.28l1.62-6.9l-0.12-0.12c-1.161,2.4-2.71,4.29-4.65,5.67
		c-1.94,1.38-4.29,2.07-7.05,2.07c-1.92,0-3.61-0.321-5.07-0.96c-1.461-0.639-2.681-1.52-3.66-2.64c-0.98-1.12-1.71-2.41-2.19-3.87
		c-0.48-1.459-0.72-3.009-0.72-4.65c0-2.319,0.35-4.68,1.05-7.08c0.699-2.4,1.76-4.569,3.18-6.51c1.419-1.939,3.18-3.519,5.28-4.74
		c2.1-1.22,4.55-1.83,7.35-1.83c2.64,0,4.869,0.72,6.69,2.16c1.819,1.44,2.87,3.44,3.15,6h0.12l4.14-19.44H264.803z
		 M243.683,219.602c2.199,0,4.149-0.63,5.85-1.89c1.7-1.26,3.11-2.85,4.23-4.77c1.119-1.92,1.97-4,2.55-6.24
		c0.58-2.24,0.87-4.339,0.87-6.3c0-1.12-0.19-2.229-0.57-3.33c-0.381-1.1-0.93-2.079-1.65-2.94c-0.72-0.86-1.611-1.55-2.67-2.07
		c-1.06-0.52-2.25-0.78-3.57-0.78c-2.44,0-4.581,0.561-6.42,1.68c-1.84,1.12-3.39,2.541-4.65,4.26c-1.26,1.72-2.211,3.63-2.85,5.73
		c-0.641,2.1-0.96,4.11-0.96,6.03c0,1.36,0.14,2.68,0.42,3.96c0.279,1.281,0.79,2.41,1.53,3.39c0.74,0.98,1.74,1.77,3,2.37
		C240.053,219.302,241.682,219.602,243.683,219.602z"/>
	<path fill="#78D2F7" d="M298.163,178.022l-9.12,42.84h-2.28l1.62-6.9l-0.12-0.12c-1.161,2.4-2.71,4.29-4.65,5.67
		c-1.94,1.38-4.29,2.07-7.05,2.07c-1.92,0-3.61-0.321-5.07-0.96c-1.461-0.639-2.681-1.52-3.66-2.64c-0.98-1.12-1.71-2.41-2.19-3.87
		c-0.48-1.459-0.72-3.009-0.72-4.65c0-2.319,0.35-4.68,1.05-7.08c0.699-2.4,1.76-4.569,3.18-6.51c1.419-1.939,3.18-3.519,5.28-4.74
		c2.1-1.22,4.55-1.83,7.35-1.83c2.64,0,4.869,0.72,6.69,2.16c1.819,1.44,2.87,3.44,3.15,6h0.12l4.14-19.44H298.163z
		 M277.043,219.602c2.199,0,4.149-0.63,5.85-1.89c1.7-1.26,3.11-2.85,4.23-4.77c1.119-1.92,1.97-4,2.55-6.24
		c0.58-2.24,0.87-4.339,0.87-6.3c0-1.12-0.19-2.229-0.57-3.33c-0.381-1.1-0.93-2.079-1.65-2.94c-0.72-0.86-1.611-1.55-2.67-2.07
		c-1.06-0.52-2.25-0.78-3.57-0.78c-2.44,0-4.581,0.561-6.42,1.68c-1.84,1.12-3.39,2.541-4.65,4.26c-1.26,1.72-2.211,3.63-2.85,5.73
		c-0.641,2.1-0.96,4.11-0.96,6.03c0,1.36,0.14,2.68,0.42,3.96c0.279,1.281,0.79,2.41,1.53,3.39c0.74,0.98,1.74,1.77,3,2.37
		C273.413,219.302,275.042,219.602,277.043,219.602z"/>
	<path fill="#78D2F7" d="M293.903,229.742c0.76,0.12,1.48,0.18,2.16,0.18c1.479,0,2.66-0.42,3.54-1.26c0.879-0.84,1.68-1.84,2.4-3
		l3-4.8l-6.06-30.84h2.64l5.16,27.78l15.719-27.78h2.701l-20.94,36.24c-0.52,0.92-1.041,1.73-1.56,2.43
		c-0.521,0.699-1.101,1.29-1.74,1.77c-0.64,0.48-1.36,0.84-2.16,1.08c-0.8,0.24-1.759,0.36-2.88,0.36c-0.48,0-0.93-0.021-1.35-0.06
		c-0.42-0.041-0.789-0.081-1.11-0.12L293.903,229.742z"/>
</g>
<g>
	<path fill="#ED1261" d="M49.166,242.759h2.76l7.98,42.84h-2.64l-2.46-13.74h-20.7l-8.28,13.74h-3L49.166,242.759z M35.486,269.579
		h18.9l-4.32-24.18L35.486,269.579z"/>
	<path fill="#ED1261" d="M72.446,242.759h2.28l-8.94,42.84h-2.28L72.446,242.759z"/>
	<path fill="#ED1261" d="M79.945,254.759h2.28l-6.42,30.84h-2.28L79.945,254.759z M82.465,242.759h2.28l-1.26,6.18h-2.28
		L82.465,242.759z"/>
	<path fill="#ED1261" d="M85.465,287.759c0,2.52,0.78,4.419,2.34,5.699c1.56,1.279,3.6,1.92,6.12,1.92c2.16,0,3.96-0.291,5.4-0.869
		c1.44-0.581,2.63-1.371,3.57-2.371c0.939-1,1.68-2.189,2.22-3.569s0.99-2.851,1.35-4.41l1.38-6.12h-0.12
		c-1.16,2.04-2.65,3.621-4.47,4.74c-1.821,1.12-3.951,1.68-6.39,1.68c-1.92,0-3.6-0.3-5.04-0.9c-1.44-0.6-2.63-1.459-3.57-2.58
		c-0.94-1.119-1.641-2.439-2.1-3.959c-0.46-1.52-0.69-3.22-0.69-5.101c0-2.159,0.339-4.31,1.02-6.45
		c0.68-2.139,1.659-4.059,2.94-5.76c1.28-1.7,2.87-3.069,4.77-4.11c1.899-1.04,4.05-1.56,6.45-1.56c1.359,0,2.66,0.21,3.9,0.63
		c1.239,0.42,2.33,1,3.27,1.74c0.939,0.741,1.689,1.641,2.25,2.7c0.56,1.061,0.859,2.23,0.9,3.51h0.12l1.74-7.86h2.28l-6.36,29.4
		c-0.44,2.12-1.02,3.989-1.74,5.61c-0.72,1.619-1.671,3-2.85,4.14c-1.18,1.14-2.63,1.999-4.35,2.58c-1.72,0.579-3.8,0.87-6.24,0.87
		c-1.48,0-2.871-0.211-4.17-0.631c-1.3-0.42-2.421-1.04-3.36-1.859c-0.94-0.82-1.67-1.82-2.19-3c-0.519-1.18-0.74-2.55-0.66-4.109
		H85.465z M100.705,256.019c-2.04,0-3.87,0.471-5.49,1.41c-1.62,0.94-2.98,2.16-4.08,3.66c-1.101,1.5-1.94,3.19-2.52,5.07
		c-0.58,1.88-0.87,3.741-0.87,5.58c0,3.36,0.76,5.991,2.28,7.89c1.52,1.9,3.96,2.85,7.32,2.85c2.08,0,3.9-0.529,5.46-1.59
		c1.56-1.059,2.87-2.399,3.93-4.02c1.06-1.62,1.85-3.41,2.37-5.37c0.519-1.96,0.78-3.84,0.78-5.64c0-1.88-0.32-3.45-0.96-4.71
		c-0.64-1.26-1.42-2.27-2.34-3.03c-0.921-0.759-1.92-1.299-3-1.62C102.505,256.179,101.545,256.019,100.705,256.019z"/>
	<path fill="#ED1261" d="M122.304,254.759h2.28l-1.5,6.72h0.12c1.359-2.28,3.08-4.089,5.16-5.43c2.079-1.34,4.52-2.01,7.32-2.01
		c1.16,0,2.27,0.19,3.33,0.57c1.059,0.381,1.989,0.94,2.79,1.68c0.8,0.741,1.44,1.641,1.92,2.7c0.48,1.06,0.72,2.25,0.72,3.57
		c0,0.36-0.03,0.82-0.09,1.38s-0.141,1.14-0.24,1.74c-0.101,0.6-0.201,1.17-0.3,1.709c-0.1,0.541-0.19,0.99-0.27,1.351l-3.78,16.86
		h-2.28l3.78-16.801c0.039-0.279,0.109-0.68,0.21-1.199c0.099-0.52,0.2-1.07,0.3-1.65c0.1-0.58,0.189-1.17,0.27-1.77
		c0.08-0.601,0.12-1.12,0.12-1.561c0-1.959-0.63-3.549-1.89-4.77c-1.26-1.22-3.05-1.83-5.37-1.83c-1.96,0-3.711,0.46-5.25,1.38
		c-1.541,0.921-2.88,2.11-4.02,3.57c-1.14,1.46-2.091,3.081-2.85,4.86c-0.76,1.78-1.32,3.53-1.68,5.25l-3.06,14.521h-2.28
		L122.304,254.759z"/>
	<path fill="#78D2F7" d="M156.384,242.759h15.6c1.8,0,3.45,0.13,4.95,0.39c1.5,0.261,2.799,0.741,3.9,1.44
		c1.1,0.7,1.95,1.66,2.55,2.88c0.6,1.221,0.9,2.79,0.9,4.71c0,3.04-0.92,5.55-2.76,7.53c-1.84,1.98-4.341,3.15-7.5,3.51v0.121
		c5.319,0.84,7.98,3.959,7.98,9.359c0,1.48-0.28,2.98-0.84,4.5c-0.561,1.521-1.45,2.9-2.67,4.141c-1.221,1.24-2.82,2.26-4.8,3.059
		c-1.98,0.801-4.41,1.201-7.29,1.201h-19.14L156.384,242.759z M150.384,283.319h16.02c2.04,0,3.87-0.26,5.49-0.78
		c1.62-0.52,2.979-1.26,4.08-2.22c1.1-0.96,1.94-2.101,2.52-3.421c0.58-1.319,0.87-2.779,0.87-4.379c0-2.92-0.84-4.99-2.52-6.211
		c-1.68-1.219-4.38-1.83-8.1-1.83h-14.34L150.384,283.319z M154.884,262.199h14.34c3.84,0,6.87-0.85,9.09-2.55
		c2.22-1.7,3.33-4.11,3.33-7.23c0-1.64-0.25-2.949-0.75-3.93c-0.5-0.98-1.19-1.72-2.07-2.22c-0.88-0.5-1.93-0.83-3.15-0.99
		c-1.221-0.16-2.53-0.24-3.93-0.24h-13.2L154.884,262.199z"/>
	<path fill="#78D2F7" d="M207.803,285.599h-2.28l1.44-6.48l-0.12-0.12c-0.681,1.161-1.401,2.19-2.16,3.091
		c-0.76,0.899-1.62,1.67-2.58,2.309c-0.96,0.641-2.031,1.121-3.21,1.441c-1.18,0.318-2.55,0.479-4.11,0.479
		c-1.161,0-2.271-0.19-3.33-0.57c-1.061-0.38-1.99-0.939-2.79-1.68c-0.801-0.739-1.44-1.64-1.92-2.7c-0.48-1.06-0.72-2.25-0.72-3.57
		c0-0.359,0.03-0.818,0.09-1.38c0.06-0.56,0.14-1.14,0.24-1.739c0.1-0.601,0.2-1.17,0.3-1.711c0.1-0.539,0.189-0.99,0.27-1.35
		l3.78-16.86h2.28l-3.78,16.799c-0.081,0.281-0.171,0.682-0.27,1.201c-0.101,0.52-0.201,1.08-0.3,1.68c-0.1,0.6-0.18,1.19-0.24,1.77
		c-0.06,0.58-0.09,1.09-0.09,1.53c0,1.96,0.63,3.55,1.89,4.771c1.26,1.221,3.05,1.83,5.37,1.83c1.839,0,3.51-0.46,5.01-1.381
		c1.5-0.92,2.82-2.109,3.96-3.57c1.14-1.459,2.079-3.079,2.82-4.859c0.74-1.779,1.29-3.529,1.65-5.25l3.06-14.52h2.28
		L207.803,285.599z"/>
	<path fill="#78D2F7" d="M250.343,242.759l-9.12,42.84h-2.28l1.62-6.9l-0.12-0.12c-1.161,2.399-2.71,4.29-4.65,5.67
		c-1.94,1.38-4.29,2.07-7.05,2.07c-1.92,0-3.61-0.321-5.07-0.96c-1.461-0.64-2.681-1.52-3.66-2.641
		c-0.98-1.119-1.71-2.409-2.19-3.869s-0.72-3.01-0.72-4.65c0-2.319,0.35-4.68,1.05-7.08c0.699-2.4,1.76-4.569,3.18-6.51
		c1.419-1.939,3.18-3.519,5.28-4.74c2.1-1.22,4.55-1.83,7.35-1.83c2.64,0,4.869,0.72,6.69,2.16c1.819,1.44,2.87,3.44,3.15,6h0.12
		l4.14-19.44H250.343z M229.223,284.339c2.199,0,4.149-0.631,5.85-1.891c1.7-1.26,3.11-2.85,4.23-4.77c1.119-1.92,1.97-4,2.55-6.24
		c0.58-2.24,0.87-4.34,0.87-6.301c0-1.119-0.19-2.229-0.57-3.33c-0.381-1.1-0.93-2.079-1.65-2.94c-0.72-0.86-1.611-1.55-2.67-2.07
		c-1.06-0.52-2.25-0.78-3.57-0.78c-2.44,0-4.581,0.561-6.42,1.68c-1.84,1.12-3.39,2.541-4.65,4.26
		c-1.26,1.721-2.211,3.631-2.85,5.73c-0.641,2.1-0.96,4.109-0.96,6.029c0,1.361,0.14,2.681,0.42,3.961
		c0.279,1.28,0.79,2.41,1.53,3.39c0.74,0.98,1.74,1.771,3,2.37C225.593,284.039,227.223,284.339,229.223,284.339z"/>
	<path fill="#78D2F7" d="M283.703,242.759l-9.12,42.84h-2.28l1.62-6.9l-0.12-0.12c-1.161,2.399-2.71,4.29-4.65,5.67
		c-1.94,1.38-4.29,2.07-7.05,2.07c-1.92,0-3.61-0.321-5.07-0.96c-1.461-0.64-2.681-1.52-3.66-2.641
		c-0.98-1.119-1.71-2.409-2.19-3.869s-0.72-3.01-0.72-4.65c0-2.319,0.35-4.68,1.05-7.08c0.699-2.4,1.76-4.569,3.18-6.51
		c1.419-1.939,3.18-3.519,5.28-4.74c2.1-1.22,4.55-1.83,7.35-1.83c2.64,0,4.869,0.72,6.69,2.16c1.819,1.44,2.87,3.44,3.15,6h0.12
		l4.14-19.44H283.703z M262.583,284.339c2.199,0,4.149-0.631,5.85-1.891c1.7-1.26,3.11-2.85,4.23-4.77c1.119-1.92,1.97-4,2.55-6.24
		c0.58-2.24,0.87-4.34,0.87-6.301c0-1.119-0.19-2.229-0.57-3.33c-0.381-1.1-0.93-2.079-1.65-2.94c-0.72-0.86-1.611-1.55-2.67-2.07
		c-1.06-0.52-2.25-0.78-3.57-0.78c-2.44,0-4.581,0.561-6.42,1.68c-1.84,1.12-3.39,2.541-4.65,4.26
		c-1.26,1.721-2.211,3.631-2.85,5.73c-0.641,2.1-0.96,4.109-0.96,6.029c0,1.361,0.14,2.681,0.42,3.961
		c0.279,1.28,0.79,2.41,1.53,3.39c0.74,0.98,1.74,1.771,3,2.37C258.953,284.039,260.583,284.339,262.583,284.339z"/>
	<path fill="#78D2F7" d="M279.443,294.478c0.76,0.121,1.48,0.181,2.16,0.181c1.479,0,2.66-0.42,3.54-1.261
		c0.879-0.84,1.68-1.84,2.4-3l3-4.799l-6.06-30.84h2.64l5.16,27.78l15.72-27.78h2.7l-20.94,36.24c-0.52,0.92-1.041,1.729-1.56,2.431
		c-0.521,0.699-1.101,1.289-1.74,1.77c-0.64,0.48-1.36,0.84-2.16,1.08c-0.8,0.24-1.759,0.359-2.88,0.359
		c-0.48,0-0.93-0.02-1.35-0.06s-0.789-0.081-1.11-0.12L279.443,294.478z"/>
</g>
<g>
	<path fill="#90278F" d="M36.266,308.021h13.86c2.88,0,5.319,0.381,7.32,1.141c2,0.76,3.63,1.881,4.89,3.359
		c1.26,1.48,2.18,3.291,2.76,5.43c0.579,2.141,0.87,4.591,0.87,7.351c0,3.081-0.501,6.141-1.5,9.181
		c-1,3.039-2.481,5.779-4.44,8.219c-1.96,2.441-4.36,4.41-7.2,5.91c-2.841,1.5-6.12,2.25-9.84,2.25h-15.78L36.266,308.021z
		 M30.326,348.582h12.36c2.48,0,4.71-0.34,6.69-1.02s3.729-1.61,5.25-2.791c1.52-1.18,2.83-2.55,3.93-4.109
		c1.1-1.561,2-3.2,2.7-4.92c0.699-1.72,1.219-3.471,1.56-5.25c0.339-1.779,0.51-3.51,0.51-5.19c0-2.439-0.24-4.599-0.72-6.479
		s-1.26-3.451-2.34-4.711s-2.5-2.209-4.26-2.85c-1.761-0.639-3.921-0.96-6.48-0.96h-11.1L30.326,348.582z"/>
	<path fill="#90278F" d="M77.426,308.021h15.6c1.8,0,3.45,0.131,4.95,0.391s2.799,0.74,3.9,1.439c1.1,0.701,1.95,1.66,2.55,2.881
		s0.9,2.789,0.9,4.709c0,3.041-0.92,5.551-2.76,7.53c-1.84,1.979-4.341,3.149-7.5,3.511v0.119c5.319,0.84,7.98,3.961,7.98,9.36
		c0,1.479-0.28,2.979-0.84,4.5c-0.561,1.521-1.45,2.9-2.67,4.14c-1.221,1.24-2.82,2.261-4.8,3.061
		c-1.98,0.801-4.41,1.199-7.29,1.199h-19.14L77.426,308.021z M71.426,348.582h16.02c2.04,0,3.87-0.26,5.49-0.78
		c1.62-0.52,2.979-1.26,4.08-2.22c1.1-0.961,1.94-2.1,2.52-3.42c0.58-1.32,0.87-2.779,0.87-4.381c0-2.919-0.84-4.988-2.52-6.209
		s-4.38-1.83-8.1-1.83h-14.34L71.426,348.582z M75.926,327.461h14.34c3.84,0,6.87-0.85,9.09-2.55c2.22-1.7,3.33-4.11,3.33-7.23
		c0-1.64-0.25-2.949-0.75-3.93c-0.5-0.98-1.19-1.72-2.07-2.221c-0.88-0.499-1.93-0.829-3.15-0.989c-1.221-0.159-2.53-0.24-3.93-0.24
		h-13.2L75.926,327.461z"/>
	<path fill="#78D2F7" d="M115.226,308.021h15.6c1.8,0,3.45,0.131,4.95,0.391s2.799,0.74,3.9,1.439c1.1,0.701,1.95,1.66,2.55,2.881
		s0.9,2.789,0.9,4.709c0,3.041-0.92,5.551-2.76,7.53c-1.84,1.979-4.341,3.149-7.5,3.511v0.119c5.319,0.84,7.98,3.961,7.98,9.36
		c0,1.479-0.28,2.979-0.84,4.5c-0.561,1.521-1.45,2.9-2.67,4.14c-1.221,1.24-2.82,2.261-4.8,3.061
		c-1.98,0.801-4.41,1.199-7.29,1.199h-19.14L115.226,308.021z M109.226,348.582h16.02c2.04,0,3.87-0.26,5.49-0.78
		c1.62-0.52,2.979-1.26,4.08-2.22c1.1-0.961,1.94-2.1,2.52-3.42c0.58-1.32,0.87-2.779,0.87-4.381c0-2.919-0.84-4.988-2.52-6.209
		s-4.38-1.83-8.1-1.83h-14.34L109.226,348.582z M113.726,327.461h14.34c3.84,0,6.87-0.85,9.09-2.55c2.22-1.7,3.33-4.11,3.33-7.23
		c0-1.64-0.25-2.949-0.75-3.93c-0.5-0.98-1.19-1.72-2.07-2.221c-0.88-0.499-1.93-0.829-3.15-0.989c-1.221-0.159-2.53-0.24-3.93-0.24
		h-13.2L113.726,327.461z"/>
	<path fill="#78D2F7" d="M166.645,350.861h-2.28l1.44-6.479l-0.12-0.12c-0.681,1.16-1.401,2.189-2.16,3.09
		c-0.76,0.9-1.62,1.671-2.58,2.311c-0.96,0.641-2.031,1.12-3.21,1.439c-1.18,0.32-2.55,0.48-4.11,0.48
		c-1.161,0-2.271-0.19-3.33-0.57c-1.061-0.379-1.99-0.939-2.79-1.68c-0.801-0.74-1.44-1.641-1.92-2.7s-0.72-2.25-0.72-3.569
		c0-0.361,0.03-0.82,0.09-1.381c0.06-0.56,0.14-1.14,0.24-1.74c0.1-0.6,0.2-1.17,0.3-1.709c0.1-0.541,0.189-0.99,0.27-1.351
		l3.78-16.86h2.28l-3.78,16.801c-0.081,0.279-0.171,0.68-0.27,1.199c-0.101,0.521-0.201,1.08-0.3,1.68
		c-0.1,0.601-0.18,1.191-0.24,1.771c-0.06,0.581-0.09,1.091-0.09,1.53c0,1.96,0.63,3.551,1.89,4.77c1.26,1.221,3.05,1.83,5.37,1.83
		c1.839,0,3.51-0.459,5.01-1.38c1.5-0.919,2.82-2.109,3.96-3.569c1.14-1.461,2.079-3.08,2.82-4.86c0.74-1.78,1.29-3.53,1.65-5.25
		l3.06-14.521h2.28L166.645,350.861z"/>
	<path fill="#78D2F7" d="M209.185,308.021l-9.12,42.84h-2.28l1.62-6.899l-0.12-0.12c-1.161,2.4-2.71,4.29-4.65,5.67
		c-1.94,1.38-4.29,2.07-7.05,2.07c-1.92,0-3.61-0.32-5.07-0.961c-1.461-0.639-2.681-1.52-3.66-2.639
		c-0.98-1.12-1.71-2.41-2.19-3.871c-0.48-1.459-0.72-3.009-0.72-4.649c0-2.319,0.35-4.681,1.05-7.08
		c0.699-2.399,1.76-4.569,3.18-6.511c1.419-1.939,3.18-3.519,5.28-4.739c2.1-1.22,4.55-1.83,7.35-1.83c2.64,0,4.869,0.72,6.69,2.16
		c1.819,1.44,2.87,3.44,3.15,6h0.12l4.14-19.44H209.185z M188.064,349.601c2.199,0,4.149-0.63,5.85-1.89
		c1.7-1.261,3.11-2.851,4.23-4.771c1.119-1.92,1.97-3.999,2.55-6.24c0.58-2.239,0.87-4.339,0.87-6.299c0-1.12-0.19-2.23-0.57-3.33
		c-0.381-1.1-0.93-2.08-1.65-2.94c-0.72-0.86-1.611-1.55-2.67-2.069c-1.06-0.52-2.25-0.781-3.57-0.781
		c-2.44,0-4.581,0.561-6.42,1.681c-1.84,1.12-3.39,2.54-4.65,4.26c-1.26,1.72-2.211,3.63-2.85,5.729
		c-0.641,2.101-0.96,4.111-0.96,6.031c0,1.359,0.14,2.68,0.42,3.959c0.279,1.281,0.79,2.41,1.53,3.391c0.74,0.98,1.74,1.77,3,2.369
		C184.435,349.301,186.064,349.601,188.064,349.601z"/>
	<path fill="#78D2F7" d="M242.544,308.021l-9.12,42.84h-2.28l1.62-6.899l-0.12-0.12c-1.161,2.4-2.71,4.29-4.65,5.67
		c-1.94,1.38-4.29,2.07-7.05,2.07c-1.92,0-3.61-0.32-5.07-0.961c-1.461-0.639-2.681-1.52-3.66-2.639
		c-0.98-1.12-1.71-2.41-2.19-3.871c-0.48-1.459-0.72-3.009-0.72-4.649c0-2.319,0.35-4.681,1.05-7.08
		c0.699-2.399,1.76-4.569,3.18-6.511c1.419-1.939,3.18-3.519,5.28-4.739c2.1-1.22,4.55-1.83,7.35-1.83c2.64,0,4.869,0.72,6.69,2.16
		c1.819,1.44,2.87,3.44,3.15,6h0.12l4.14-19.44H242.544z M221.424,349.601c2.199,0,4.149-0.63,5.85-1.89
		c1.7-1.261,3.11-2.851,4.23-4.771c1.119-1.92,1.97-3.999,2.55-6.24c0.58-2.239,0.87-4.339,0.87-6.299c0-1.12-0.19-2.23-0.57-3.33
		c-0.381-1.1-0.93-2.08-1.65-2.94c-0.72-0.86-1.611-1.55-2.67-2.069c-1.06-0.52-2.25-0.781-3.57-0.781
		c-2.44,0-4.581,0.561-6.42,1.681c-1.84,1.12-3.39,2.54-4.65,4.26c-1.26,1.72-2.211,3.63-2.85,5.729
		c-0.641,2.101-0.96,4.111-0.96,6.031c0,1.359,0.14,2.68,0.42,3.959c0.279,1.281,0.79,2.41,1.53,3.391c0.74,0.98,1.74,1.77,3,2.369
		C217.794,349.301,219.424,349.601,221.424,349.601z"/>
	<path fill="#78D2F7" d="M238.285,359.742c0.76,0.119,1.48,0.18,2.16,0.18c1.479,0,2.66-0.42,3.54-1.26c0.879-0.84,1.68-1.841,2.4-3
		l3-4.801l-6.06-30.84h2.64l5.16,27.78l15.72-27.78h2.7l-20.94,36.24c-0.52,0.92-1.041,1.73-1.56,2.43
		c-0.521,0.699-1.101,1.291-1.74,1.771c-0.64,0.479-1.36,0.84-2.16,1.08c-0.8,0.239-1.759,0.36-2.88,0.36
		c-0.48,0-0.93-0.021-1.35-0.061c-0.42-0.041-0.789-0.08-1.11-0.12L238.285,359.742z"/>
</g>
<g>
	<path fill="#00A1E4" d="M367.159,78.23V32.996h6.797c3.027,0,5.439,0.234,7.236,0.703c1.816,0.469,3.35,1.26,4.6,2.373
		c1.27,1.153,2.275,2.588,3.018,4.307c0.762,1.739,1.143,3.497,1.143,5.273c0,3.242-1.24,5.987-3.721,8.232
		c2.402,0.82,4.297,2.256,5.684,4.307c1.406,2.032,2.109,4.395,2.109,7.09c0,3.535-1.25,6.523-3.75,8.965
		c-1.504,1.504-3.193,2.549-5.068,3.135c-2.051,0.567-4.619,0.85-7.705,0.85H367.159z M373.985,52.419h2.139
		c2.539,0,4.399-0.561,5.582-1.685c1.182-1.123,1.771-2.778,1.771-4.966c0-2.128-0.605-3.745-1.816-4.849
		c-1.211-1.103-2.969-1.655-5.273-1.655h-2.402V52.419z M373.985,71.814h4.219c3.086,0,5.352-0.605,6.797-1.816
		c1.523-1.308,2.285-2.969,2.285-4.98c0-1.953-0.732-3.593-2.197-4.922c-1.426-1.308-3.975-1.963-7.646-1.963h-3.457V71.814z"/>
	<path fill="#00A1E4" d="M405.69,49.695v16.377c0,4.727,1.865,7.09,5.596,7.09s5.596-2.363,5.596-7.09V49.695h6.592v16.523
		c0,2.285-0.283,4.258-0.85,5.918c-0.547,1.484-1.494,2.823-2.842,4.014c-2.227,1.934-5.059,2.9-8.496,2.9
		c-3.418,0-6.24-0.967-8.467-2.9c-1.367-1.191-2.334-2.529-2.9-4.014c-0.547-1.328-0.82-3.3-0.82-5.918V49.695H405.69z"/>
	<path fill="#00A1E4" d="M451.028,28.748h6.621V78.23h-6.621v-2.988c-2.598,2.539-5.537,3.809-8.818,3.809
		c-3.906,0-7.148-1.425-9.727-4.277c-2.559-2.91-3.838-6.543-3.838-10.898c0-4.258,1.279-7.812,3.838-10.664
		c2.539-2.871,5.732-4.307,9.58-4.307c3.34,0,6.328,1.367,8.965,4.102V28.748z M435.384,63.875c0,2.735,0.732,4.961,2.197,6.68
		c1.504,1.739,3.398,2.607,5.684,2.607c2.441,0,4.414-0.839,5.918-2.52c1.504-1.738,2.256-3.945,2.256-6.621
		c0-2.676-0.752-4.882-2.256-6.621c-1.504-1.699-3.457-2.549-5.859-2.549c-2.266,0-4.16,0.86-5.684,2.578
		C436.136,59.168,435.384,61.316,435.384,63.875z"/>
	<path fill="#00A1E4" d="M485.206,28.748h6.621V78.23h-6.621v-2.988c-2.598,2.539-5.537,3.809-8.818,3.809
		c-3.907,0-7.148-1.425-9.727-4.277c-2.56-2.91-3.838-6.543-3.838-10.898c0-4.258,1.278-7.812,3.838-10.664
		c2.538-2.871,5.731-4.307,9.58-4.307c3.34,0,6.328,1.367,8.965,4.102V28.748z M469.562,63.875c0,2.735,0.732,4.961,2.197,6.68
		c1.504,1.739,3.398,2.607,5.684,2.607c2.441,0,4.413-0.839,5.918-2.52c1.504-1.738,2.256-3.945,2.256-6.621
		c0-2.676-0.752-4.882-2.256-6.621c-1.505-1.699-3.457-2.549-5.859-2.549c-2.267,0-4.16,0.86-5.684,2.578
		C470.312,59.168,469.562,61.316,469.562,63.875z"/>
	<path fill="#00A1E4" d="M509.142,72.927L496.31,49.695h7.646l8.73,16.406l8.145-16.406h7.441l-22.734,44.062h-7.529L509.142,72.927
		z"/>
	<path fill="#78D2F7" d="M559.591,39.705l-5.537,3.281c-1.036-1.797-2.021-2.969-2.959-3.516c-0.978-0.625-2.237-0.938-3.779-0.938
		c-1.895,0-3.468,0.538-4.717,1.613c-1.25,1.056-1.875,2.384-1.875,3.987c0,2.209,1.641,3.987,4.922,5.336l4.512,1.847
		c3.672,1.486,6.357,3.298,8.057,5.438c1.699,2.141,2.549,4.765,2.549,7.872c0,4.164-1.388,7.604-4.16,10.32
		c-2.794,2.737-6.26,4.104-10.4,4.104c-3.926,0-7.168-1.167-9.727-3.502c-2.52-2.333-4.092-5.609-4.717-9.828l6.914-1.523
		c0.312,2.656,0.859,4.493,1.641,5.508c1.406,1.953,3.457,2.93,6.152,2.93c2.128,0,3.896-0.712,5.303-2.137
		c1.406-1.425,2.109-3.23,2.109-5.417c0-0.878-0.123-1.683-0.367-2.415s-0.625-1.405-1.143-2.02s-1.186-1.191-2.006-1.727
		c-0.82-0.537-1.798-1.049-2.93-1.538l-4.365-1.815c-6.192-2.615-9.287-6.44-9.287-11.476c0-3.396,1.299-6.235,3.896-8.519
		c2.597-2.303,5.83-3.455,9.697-3.455C552.589,32.117,556.661,34.646,559.591,39.705z"/>
	<path fill="#78D2F7" d="M574.327,49.695v16.377c0,4.727,1.864,7.09,5.596,7.09c3.73,0,5.596-2.363,5.596-7.09V49.695h6.592v16.523
		c0,2.285-0.283,4.258-0.85,5.918c-0.547,1.484-1.494,2.823-2.842,4.014c-2.227,1.934-5.059,2.9-8.496,2.9
		c-3.418,0-6.24-0.967-8.467-2.9c-1.367-1.191-2.334-2.529-2.9-4.014c-0.547-1.328-0.82-3.3-0.82-5.918V49.695H574.327z"/>
	<path fill="#78D2F7" d="M599.435,37.83c0-1.152,0.42-2.148,1.26-2.988c0.839-0.839,1.846-1.26,3.018-1.26
		c1.19,0,2.207,0.42,3.047,1.26c0.839,0.82,1.26,1.827,1.26,3.018c0,1.191-0.421,2.208-1.26,3.047c-0.82,0.84-1.827,1.26-3.018,1.26
		c-1.191,0-2.208-0.42-3.047-1.26C599.854,40.066,599.435,39.041,599.435,37.83z M607.022,49.695V78.23h-6.592V49.695H607.022z"/>
	<path fill="#78D2F7" d="M622.169,55.847V78.23h-6.592V55.847h-2.812v-6.152h2.812V39.236h6.592v10.459h5.127v6.152H622.169z"/>
	<path fill="#78D2F7" d="M658.292,65.515h-20.449c0.176,2.344,0.938,4.209,2.285,5.596c1.348,1.367,3.076,2.051,5.186,2.051
		c1.641,0,2.998-0.391,4.072-1.172c1.055-0.781,2.256-2.227,3.604-4.336l5.566,3.105c-0.86,1.465-1.769,2.72-2.725,3.765
		c-0.957,1.045-1.982,1.904-3.076,2.578c-1.095,0.674-2.275,1.167-3.545,1.479c-1.271,0.312-2.647,0.469-4.131,0.469
		c-4.259,0-7.676-1.367-10.254-4.102c-2.578-2.754-3.867-6.406-3.867-10.957c0-4.512,1.249-8.164,3.75-10.957
		c2.52-2.754,5.859-4.131,10.02-4.131c4.199,0,7.519,1.338,9.961,4.014c2.421,2.656,3.633,6.338,3.633,11.045L658.292,65.515z
		 M651.524,60.125c-0.919-3.516-3.135-5.273-6.65-5.273c-0.802,0-1.553,0.122-2.256,0.366c-0.703,0.245-1.344,0.596-1.92,1.055
		c-0.576,0.459-1.068,1.011-1.479,1.655s-0.723,1.377-0.938,2.197H651.524z"/>
</g>
<g>
	<path fill="#A1CD3A" d="M392.735,110.757l-5.537,3.281c-1.035-1.797-2.021-2.969-2.959-3.516c-0.977-0.625-2.236-0.938-3.779-0.938
		c-1.895,0-3.467,0.538-4.717,1.613c-1.25,1.056-1.875,2.384-1.875,3.987c0,2.209,1.641,3.987,4.922,5.336l4.512,1.847
		c3.672,1.486,6.357,3.298,8.057,5.438c1.699,2.141,2.549,4.765,2.549,7.872c0,4.164-1.387,7.604-4.16,10.32
		c-2.793,2.737-6.26,4.104-10.4,4.104c-3.926,0-7.168-1.167-9.727-3.502c-2.52-2.333-4.092-5.609-4.717-9.828l6.914-1.523
		c0.312,2.656,0.859,4.493,1.641,5.508c1.406,1.953,3.457,2.93,6.152,2.93c2.129,0,3.896-0.712,5.303-2.137
		c1.406-1.425,2.109-3.23,2.109-5.417c0-0.878-0.121-1.683-0.365-2.415c-0.245-0.732-0.626-1.405-1.143-2.02
		c-0.518-0.615-1.188-1.191-2.008-1.727c-0.82-0.537-1.797-1.049-2.93-1.538l-4.365-1.815c-6.191-2.615-9.287-6.44-9.287-11.476
		c0-3.396,1.299-6.235,3.896-8.519c2.598-2.303,5.83-3.455,9.697-3.455C385.733,103.169,389.806,105.699,392.735,110.757z"/>
	<path fill="#A1CD3A" d="M425.366,136.568h-20.449c0.176,2.344,0.938,4.209,2.285,5.596c1.348,1.367,3.076,2.051,5.186,2.051
		c1.641,0,2.998-0.391,4.072-1.172c1.055-0.781,2.256-2.227,3.604-4.336l5.566,3.105c-0.859,1.465-1.768,2.72-2.725,3.765
		c-0.957,1.045-1.982,1.904-3.076,2.578s-2.275,1.167-3.545,1.479c-1.27,0.312-2.646,0.469-4.131,0.469
		c-4.258,0-7.676-1.367-10.254-4.102c-2.578-2.754-3.867-6.406-3.867-10.957c0-4.512,1.25-8.164,3.75-10.957
		c2.52-2.754,5.859-4.131,10.02-4.131c4.199,0,7.52,1.338,9.961,4.014c2.422,2.656,3.633,6.338,3.633,11.045L425.366,136.568z
		 M418.599,131.177c-0.918-3.516-3.135-5.273-6.65-5.273c-0.801,0-1.553,0.122-2.256,0.366c-0.703,0.245-1.343,0.596-1.918,1.055
		c-0.576,0.459-1.07,1.011-1.48,1.655s-0.723,1.377-0.938,2.197H418.599z"/>
	<path fill="#A1CD3A" d="M452.709,164.81v-18.721c-2.618,2.676-5.606,4.014-8.965,4.014c-3.849,0-7.042-1.416-9.58-4.248
		c-2.56-2.852-3.838-6.416-3.838-10.693c0-4.336,1.278-7.958,3.838-10.869c2.578-2.89,5.811-4.336,9.697-4.336
		c3.3,0,6.25,1.299,8.848,3.896v-3.105h6.621v44.062H452.709z M437.064,134.869c0,2.754,0.742,4.991,2.227,6.709
		c1.483,1.758,3.369,2.637,5.654,2.637c2.421,0,4.384-0.839,5.889-2.52c1.523-1.699,2.285-3.906,2.285-6.621
		c0-2.676-0.752-4.882-2.256-6.621c-1.505-1.699-3.457-2.549-5.859-2.549c-2.267,0-4.16,0.86-5.684,2.578
		C437.815,130.221,437.064,132.349,437.064,134.869z"/>
	<path fill="#78D2F7" d="M468.91,149.283v-45.234h6.797c3.027,0,5.438,0.234,7.236,0.703c1.816,0.469,3.35,1.26,4.6,2.373
		c1.27,1.153,2.274,2.588,3.018,4.307c0.762,1.739,1.143,3.497,1.143,5.273c0,3.242-1.241,5.987-3.721,8.232
		c2.402,0.82,4.296,2.256,5.684,4.307c1.406,2.032,2.109,4.395,2.109,7.09c0,3.535-1.25,6.523-3.75,8.965
		c-1.505,1.504-3.193,2.549-5.068,3.135c-2.051,0.567-4.619,0.85-7.705,0.85H468.91z M475.736,123.472h2.139
		c2.538,0,4.399-0.561,5.581-1.685c1.182-1.123,1.772-2.778,1.772-4.966c0-2.128-0.605-3.745-1.816-4.849
		c-1.212-1.103-2.97-1.655-5.273-1.655h-2.402V123.472z M475.736,142.867h4.219c3.086,0,5.351-0.605,6.797-1.816
		c1.523-1.308,2.285-2.969,2.285-4.98c0-1.953-0.732-3.593-2.197-4.922c-1.426-1.308-3.975-1.963-7.646-1.963h-3.457V142.867z"/>
	<path fill="#78D2F7" d="M509.721,120.748v16.377c0,4.727,1.864,7.09,5.596,7.09c3.73,0,5.596-2.363,5.596-7.09v-16.377h6.592
		v16.523c0,2.285-0.283,4.258-0.85,5.918c-0.547,1.484-1.494,2.823-2.842,4.014c-2.227,1.934-5.059,2.9-8.496,2.9
		c-3.418,0-6.24-0.967-8.467-2.9c-1.367-1.191-2.334-2.529-2.9-4.014c-0.547-1.328-0.82-3.3-0.82-5.918v-16.523H509.721z"/>
	<path fill="#78D2F7" d="M556.859,99.8h6.621v49.482h-6.621v-2.988c-2.598,2.539-5.537,3.809-8.818,3.809
		c-3.907,0-7.148-1.425-9.727-4.277c-2.56-2.91-3.838-6.543-3.838-10.898c0-4.258,1.278-7.812,3.838-10.664
		c2.538-2.871,5.731-4.307,9.58-4.307c3.34,0,6.328,1.367,8.965,4.102V99.8z M541.215,134.927c0,2.735,0.732,4.961,2.197,6.68
		c1.504,1.739,3.398,2.607,5.684,2.607c2.441,0,4.413-0.839,5.918-2.52c1.504-1.738,2.256-3.945,2.256-6.621
		c0-2.676-0.752-4.882-2.256-6.621c-1.505-1.699-3.457-2.549-5.859-2.549c-2.267,0-4.16,0.86-5.684,2.578
		C541.966,130.221,541.215,132.369,541.215,134.927z"/>
	<path fill="#78D2F7" d="M592.836,99.8h6.621v49.482h-6.621v-2.988c-2.598,2.539-5.537,3.809-8.818,3.809
		c-3.907,0-7.148-1.425-9.727-4.277c-2.56-2.91-3.838-6.543-3.838-10.898c0-4.258,1.278-7.812,3.838-10.664
		c2.538-2.871,5.731-4.307,9.58-4.307c3.34,0,6.328,1.367,8.965,4.102V99.8z M577.191,134.927c0,2.735,0.732,4.961,2.197,6.68
		c1.504,1.739,3.398,2.607,5.684,2.607c2.441,0,4.413-0.839,5.918-2.52c1.504-1.738,2.256-3.945,2.256-6.621
		c0-2.676-0.752-4.882-2.256-6.621c-1.505-1.699-3.457-2.549-5.859-2.549c-2.267,0-4.16,0.86-5.684,2.578
		C577.942,130.221,577.191,132.369,577.191,134.927z"/>
	<path fill="#78D2F7" d="M616.771,143.98l-12.832-23.232h7.646l8.73,16.406l8.145-16.406h7.441l-22.734,44.062h-7.529
		L616.771,143.98z"/>
</g>
<g>
	<path fill="#F7941E" d="M373.985,202.493v18.369h-6.826v-45.234h7.734c3.789,0,6.65,0.264,8.584,0.791
		c1.953,0.527,3.672,1.523,5.156,2.988c2.598,2.539,3.896,5.742,3.896,9.609c0,4.141-1.387,7.422-4.16,9.844
		c-2.773,2.422-6.514,3.633-11.221,3.633H373.985z M373.985,196.165h2.549c6.27,0,9.404-2.412,9.404-7.236
		c0-4.668-3.232-7.002-9.697-7.002h-2.256V196.165z"/>
	<path fill="#F7941E" d="M398.302,171.379h6.592v23.32c2.344-2.109,4.932-3.164,7.764-3.164c3.223,0,5.801,1.045,7.734,3.135
		c1.641,1.816,2.461,4.717,2.461,8.701v17.49h-6.592v-16.875c0-2.285-0.405-3.94-1.215-4.966c-0.811-1.025-2.115-1.538-3.912-1.538
		c-2.305,0-3.926,0.713-4.863,2.139c-0.918,1.446-1.377,3.926-1.377,7.441v13.799h-6.592V171.379z"/>
	<path fill="#F7941E" d="M439.229,215.559l-12.832-23.232h7.646l8.73,16.406l8.145-16.406h7.441l-22.734,44.062h-7.529
		L439.229,215.559z"/>
	<path fill="#F7941E" d="M469.962,171.379v49.482h-6.592v-49.482H469.962z"/>
	<path fill="#F7941E" d="M476.964,206.389c0-4.121,1.475-7.627,4.424-10.518c2.949-2.89,6.543-4.336,10.781-4.336
		c4.258,0,7.871,1.455,10.84,4.365c2.93,2.911,4.395,6.485,4.395,10.723c0,4.277-1.475,7.862-4.424,10.752
		c-2.969,2.871-6.611,4.307-10.928,4.307c-4.277,0-7.861-1.465-10.752-4.395C478.409,214.397,476.964,210.765,476.964,206.389z
		 M483.702,206.506c0,2.852,0.762,5.108,2.285,6.768c1.562,1.68,3.623,2.52,6.182,2.52c2.578,0,4.639-0.83,6.182-2.49
		c1.543-1.66,2.314-3.877,2.314-6.65c0-2.773-0.771-4.99-2.314-6.65c-1.562-1.68-3.623-2.52-6.182-2.52
		c-2.52,0-4.561,0.84-6.123,2.52C484.483,201.683,483.702,203.851,483.702,206.506z"/>
	<path fill="#78D2F7" d="M515.636,220.862v-45.234h6.797c3.027,0,5.439,0.234,7.236,0.703c1.816,0.469,3.35,1.26,4.6,2.373
		c1.27,1.153,2.275,2.588,3.018,4.307c0.762,1.739,1.143,3.497,1.143,5.273c0,3.242-1.24,5.987-3.721,8.232
		c2.402,0.82,4.297,2.256,5.684,4.307c1.406,2.032,2.109,4.395,2.109,7.09c0,3.535-1.25,6.523-3.75,8.965
		c-1.504,1.504-3.193,2.549-5.068,3.135c-2.051,0.567-4.619,0.85-7.705,0.85H515.636z M522.462,195.051h2.139
		c2.539,0,4.399-0.561,5.582-1.685c1.182-1.123,1.771-2.778,1.771-4.966c0-2.128-0.605-3.745-1.816-4.849
		c-1.211-1.103-2.969-1.655-5.273-1.655h-2.402V195.051z M522.462,214.446h4.219c3.086,0,5.352-0.605,6.797-1.816
		c1.523-1.308,2.285-2.969,2.285-4.98c0-1.953-0.732-3.593-2.197-4.922c-1.426-1.308-3.975-1.963-7.646-1.963h-3.457V214.446z"/>
	<path fill="#78D2F7" d="M556.446,192.327v16.377c0,4.727,1.865,7.09,5.596,7.09s5.596-2.363,5.596-7.09v-16.377h6.592v16.523
		c0,2.285-0.283,4.258-0.85,5.918c-0.547,1.484-1.494,2.823-2.842,4.014c-2.227,1.934-5.059,2.9-8.496,2.9
		c-3.418,0-6.24-0.967-8.467-2.9c-1.367-1.191-2.334-2.529-2.9-4.014c-0.547-1.328-0.82-3.3-0.82-5.918v-16.523H556.446z"/>
	<path fill="#78D2F7" d="M603.585,171.379h6.621v49.482h-6.621v-2.988c-2.598,2.539-5.537,3.809-8.818,3.809
		c-3.906,0-7.148-1.425-9.727-4.277c-2.559-2.91-3.838-6.543-3.838-10.898c0-4.258,1.279-7.812,3.838-10.664
		c2.539-2.871,5.732-4.307,9.58-4.307c3.34,0,6.328,1.367,8.965,4.102V171.379z M587.94,206.506c0,2.735,0.732,4.961,2.197,6.68
		c1.504,1.739,3.398,2.607,5.684,2.607c2.441,0,4.414-0.839,5.918-2.52c1.504-1.738,2.256-3.945,2.256-6.621
		c0-2.676-0.752-4.882-2.256-6.621c-1.504-1.699-3.457-2.549-5.859-2.549c-2.266,0-4.16,0.86-5.684,2.578
		C588.692,201.8,587.94,203.948,587.94,206.506z"/>
	<path fill="#78D2F7" d="M639.562,171.379h6.621v49.482h-6.621v-2.988c-2.598,2.539-5.537,3.809-8.818,3.809
		c-3.906,0-7.148-1.425-9.727-4.277c-2.559-2.91-3.838-6.543-3.838-10.898c0-4.258,1.279-7.812,3.838-10.664
		c2.539-2.871,5.732-4.307,9.58-4.307c3.34,0,6.328,1.367,8.965,4.102V171.379z M623.917,206.506c0,2.735,0.732,4.961,2.197,6.68
		c1.504,1.739,3.398,2.607,5.684,2.607c2.441,0,4.414-0.839,5.918-2.52c1.504-1.738,2.256-3.945,2.256-6.621
		c0-2.676-0.752-4.882-2.256-6.621c-1.504-1.699-3.457-2.549-5.859-2.549c-2.266,0-4.16,0.86-5.684,2.578
		C624.669,201.8,623.917,203.948,623.917,206.506z"/>
	<path fill="#78D2F7" d="M663.498,215.559l-12.832-23.232h7.646l8.73,16.406l8.145-16.406h7.441l-22.734,44.062h-7.529
		L663.498,215.559z"/>
</g>
<g>
	<path fill="#ED1261" d="M393.731,274.613h-19.365l-5.039,10.986h-7.354l22.383-48.077l21.592,48.077h-7.471L393.731,274.613z
		 M390.948,268.197l-6.709-15.381l-7.031,15.381H390.948z"/>
	<path fill="#ED1261" d="M416.935,236.116v49.483h-6.592v-49.483H416.935z"/>
	<path fill="#ED1261" d="M424.288,245.198c0-1.152,0.42-2.148,1.26-2.988c0.84-0.839,1.846-1.26,3.018-1.26
		c1.191,0,2.207,0.42,3.047,1.26c0.84,0.82,1.26,1.827,1.26,3.018c0,1.191-0.42,2.208-1.26,3.047c-0.82,0.84-1.826,1.26-3.018,1.26
		s-2.207-0.42-3.047-1.26C424.708,247.435,424.288,246.41,424.288,245.198z M431.876,257.063v28.536h-6.592v-28.536H431.876z"/>
	<path fill="#ED1261" d="M467.823,284.925c0,1.348-0.043,2.533-0.131,3.559s-0.211,1.93-0.367,2.711
		c-0.469,2.148-1.387,3.994-2.754,5.537c-2.578,2.969-6.123,4.453-10.635,4.453c-3.809,0-6.943-1.031-9.404-3.092
		c-2.539-2.119-4.004-5.043-4.395-8.773h6.621c0.254,1.406,0.674,2.49,1.26,3.252c1.367,1.776,3.359,2.666,5.977,2.666
		c4.824,0,7.236-2.949,7.236-8.848v-3.984c-2.617,2.676-5.635,4.014-9.053,4.014c-3.887,0-7.07-1.406-9.551-4.219
		c-2.5-2.852-3.75-6.416-3.75-10.693c0-4.16,1.162-7.695,3.486-10.606c2.5-3.086,5.801-4.629,9.902-4.629
		c3.594,0,6.582,1.338,8.965,4.014v-3.223h6.592V284.925z M461.495,271.404c0-2.769-0.742-4.982-2.227-6.639
		c-1.504-1.697-3.428-2.545-5.771-2.545c-2.5,0-4.473,0.927-5.918,2.779c-1.309,1.657-1.963,3.803-1.963,6.435
		c0,2.594,0.654,4.72,1.963,6.377c1.426,1.814,3.398,2.721,5.918,2.721s4.512-0.917,5.977-2.75
		C460.821,276.124,461.495,273.998,461.495,271.404z"/>
	<path fill="#ED1261" d="M476.144,257.063h6.621v2.637c2.305-2.285,4.902-3.428,7.793-3.428c3.32,0,5.908,1.045,7.764,3.135
		c1.602,1.777,2.402,4.678,2.402,8.702v17.49h-6.621v-15.918c0-2.809-0.391-4.75-1.172-5.822c-0.762-1.093-2.148-1.639-4.16-1.639
		c-2.188,0-3.74,0.722-4.658,2.165c-0.898,1.425-1.348,3.912-1.348,7.463v13.752h-6.621V257.063z"/>
	<path fill="#78D2F7" d="M510.304,285.599v-45.235h6.797c3.027,0,5.439,0.234,7.236,0.703c1.816,0.469,3.35,1.26,4.6,2.373
		c1.27,1.153,2.275,2.588,3.018,4.307c0.762,1.739,1.143,3.497,1.143,5.273c0,3.242-1.24,5.987-3.721,8.232
		c2.402,0.82,4.297,2.256,5.684,4.307c1.406,2.031,2.109,4.395,2.109,7.09c0,3.535-1.25,6.523-3.75,8.965
		c-1.504,1.504-3.193,2.549-5.068,3.135c-2.051,0.566-4.619,0.85-7.705,0.85H510.304z M517.13,259.788h2.139
		c2.539,0,4.399-0.561,5.582-1.685c1.182-1.123,1.771-2.778,1.771-4.966c0-2.128-0.605-3.745-1.816-4.849
		c-1.211-1.103-2.969-1.655-5.273-1.655h-2.402V259.788z M517.13,279.183h4.219c3.086,0,5.352-0.605,6.797-1.816
		c1.523-1.309,2.285-2.969,2.285-4.98c0-1.953-0.732-3.594-2.197-4.922c-1.426-1.309-3.975-1.963-7.646-1.963h-3.457V279.183z"/>
	<path fill="#78D2F7" d="M551.114,257.063v16.377c0,4.727,1.865,7.09,5.596,7.09s5.596-2.363,5.596-7.09v-16.377h6.592v16.524
		c0,2.285-0.283,4.258-0.85,5.918c-0.547,1.484-1.494,2.822-2.842,4.014c-2.227,1.934-5.059,2.9-8.496,2.9
		c-3.418,0-6.24-0.967-8.467-2.9c-1.367-1.191-2.334-2.529-2.9-4.014c-0.547-1.328-0.82-3.301-0.82-5.918v-16.524H551.114z"/>
	<path fill="#78D2F7" d="M598.253,236.116h6.621v49.483h-6.621v-2.988c-2.598,2.539-5.537,3.809-8.818,3.809
		c-3.906,0-7.148-1.426-9.727-4.277c-2.559-2.91-3.838-6.543-3.838-10.898c0-4.258,1.279-7.812,3.838-10.665
		c2.539-2.871,5.732-4.307,9.58-4.307c3.34,0,6.328,1.367,8.965,4.102V236.116z M582.608,271.244c0,2.734,0.732,4.961,2.197,6.68
		c1.504,1.738,3.398,2.607,5.684,2.607c2.441,0,4.414-0.84,5.918-2.52c1.504-1.738,2.256-3.945,2.256-6.621
		s-0.752-4.883-2.256-6.621c-1.504-1.7-3.457-2.549-5.859-2.549c-2.266,0-4.16,0.86-5.684,2.579
		C583.36,266.537,582.608,268.685,582.608,271.244z"/>
	<path fill="#78D2F7" d="M634.229,236.116h6.621v49.483h-6.621v-2.988c-2.598,2.539-5.537,3.809-8.818,3.809
		c-3.906,0-7.148-1.426-9.727-4.277c-2.559-2.91-3.838-6.543-3.838-10.898c0-4.258,1.279-7.812,3.838-10.665
		c2.539-2.871,5.732-4.307,9.58-4.307c3.34,0,6.328,1.367,8.965,4.102V236.116z M618.585,271.244c0,2.734,0.732,4.961,2.197,6.68
		c1.504,1.738,3.398,2.607,5.684,2.607c2.441,0,4.414-0.84,5.918-2.52c1.504-1.738,2.256-3.945,2.256-6.621
		s-0.752-4.883-2.256-6.621c-1.504-1.7-3.457-2.549-5.859-2.549c-2.266,0-4.16,0.86-5.684,2.579
		C619.337,266.537,618.585,268.685,618.585,271.244z"/>
	<path fill="#78D2F7" d="M658.166,280.296l-12.833-23.233h7.647l8.73,16.407l8.145-16.407h7.441l-22.734,44.063h-7.529
		L658.166,280.296z"/>
</g>
<g>
	<path fill="#90278F" d="M367.159,350.861v-45.234h9.492c4.551,0,8.145,0.45,10.781,1.348c2.832,0.879,5.4,2.373,7.705,4.482
		c4.668,4.259,7.002,9.854,7.002,16.787c0,6.954-2.432,12.579-7.295,16.875c-2.441,2.149-5,3.644-7.676,4.482
		c-2.5,0.84-6.045,1.26-10.635,1.26H367.159z M373.985,344.445h3.076c3.066,0,5.615-0.322,7.646-0.967
		c2.031-0.684,3.867-1.768,5.508-3.252c3.359-3.065,5.039-7.061,5.039-11.982c0-4.961-1.66-8.983-4.98-12.07
		c-2.988-2.754-7.393-4.131-13.213-4.131h-3.076V344.445z"/>
	<path fill="#90278F" d="M407.724,350.861v-45.234h6.797c3.027,0,5.439,0.234,7.236,0.703c1.816,0.469,3.35,1.26,4.6,2.373
		c1.27,1.153,2.275,2.589,3.018,4.307c0.762,1.739,1.143,3.497,1.143,5.273c0,3.242-1.24,5.987-3.721,8.232
		c2.402,0.82,4.297,2.256,5.684,4.307c1.406,2.032,2.109,4.395,2.109,7.09c0,3.535-1.25,6.523-3.75,8.965
		c-1.504,1.505-3.193,2.549-5.068,3.135c-2.051,0.567-4.619,0.85-7.705,0.85H407.724z M414.55,325.05h2.139
		c2.539,0,4.399-0.561,5.582-1.684c1.182-1.123,1.771-2.779,1.771-4.967c0-2.128-0.605-3.744-1.816-4.848s-2.969-1.656-5.273-1.656
		h-2.402V325.05z M414.55,344.445h4.219c3.086,0,5.352-0.604,6.797-1.816c1.523-1.308,2.285-2.969,2.285-4.98
		c0-1.952-0.732-3.593-2.197-4.922c-1.426-1.308-3.975-1.963-7.646-1.963h-3.457V344.445z"/>
	<path fill="#78D2F7" d="M443.202,350.861v-45.234h6.797c3.027,0,5.439,0.234,7.236,0.703c1.816,0.469,3.35,1.26,4.6,2.373
		c1.27,1.153,2.275,2.589,3.018,4.307c0.762,1.739,1.143,3.497,1.143,5.273c0,3.242-1.24,5.987-3.721,8.232
		c2.402,0.82,4.297,2.256,5.684,4.307c1.406,2.032,2.109,4.395,2.109,7.09c0,3.535-1.25,6.523-3.75,8.965
		c-1.504,1.505-3.193,2.549-5.068,3.135c-2.051,0.567-4.619,0.85-7.705,0.85H443.202z M450.028,325.05h2.139
		c2.539,0,4.399-0.561,5.582-1.684c1.182-1.123,1.771-2.779,1.771-4.967c0-2.128-0.605-3.744-1.816-4.848s-2.969-1.656-5.273-1.656
		h-2.402V325.05z M450.028,344.445h4.219c3.086,0,5.352-0.604,6.797-1.816c1.523-1.308,2.285-2.969,2.285-4.98
		c0-1.952-0.732-3.593-2.197-4.922c-1.426-1.308-3.975-1.963-7.646-1.963h-3.457V344.445z"/>
	<path fill="#78D2F7" d="M484.013,322.326v16.377c0,4.728,1.865,7.09,5.596,7.09s5.596-2.362,5.596-7.09v-16.377h6.592v16.523
		c0,2.285-0.283,4.259-0.85,5.918c-0.547,1.484-1.494,2.823-2.842,4.014c-2.227,1.934-5.059,2.9-8.496,2.9
		c-3.418,0-6.24-0.967-8.467-2.9c-1.367-1.19-2.334-2.529-2.9-4.014c-0.547-1.328-0.82-3.3-0.82-5.918v-16.523H484.013z"/>
	<path fill="#78D2F7" d="M531.151,301.378h6.621v49.482h-6.621v-2.988c-2.598,2.539-5.537,3.809-8.818,3.809
		c-3.906,0-7.148-1.425-9.727-4.277c-2.559-2.91-3.838-6.543-3.838-10.898c0-4.258,1.279-7.812,3.838-10.664
		c2.539-2.871,5.732-4.307,9.58-4.307c3.34,0,6.328,1.367,8.965,4.102V301.378z M515.507,336.505c0,2.735,0.732,4.962,2.197,6.68
		c1.504,1.739,3.398,2.607,5.684,2.607c2.441,0,4.414-0.839,5.918-2.52c1.504-1.738,2.256-3.944,2.256-6.621
		c0-2.676-0.752-4.882-2.256-6.621c-1.504-1.699-3.457-2.549-5.859-2.549c-2.266,0-4.16,0.86-5.684,2.578
		C516.259,331.799,515.507,333.947,515.507,336.505z"/>
	<path fill="#78D2F7" d="M567.128,301.378h6.621v49.482h-6.621v-2.988c-2.598,2.539-5.537,3.809-8.818,3.809
		c-3.906,0-7.148-1.425-9.727-4.277c-2.559-2.91-3.838-6.543-3.838-10.898c0-4.258,1.279-7.812,3.838-10.664
		c2.539-2.871,5.732-4.307,9.58-4.307c3.34,0,6.328,1.367,8.965,4.102V301.378z M551.483,336.505c0,2.735,0.732,4.962,2.197,6.68
		c1.504,1.739,3.398,2.607,5.684,2.607c2.441,0,4.414-0.839,5.918-2.52c1.504-1.738,2.256-3.944,2.256-6.621
		c0-2.676-0.752-4.882-2.256-6.621c-1.504-1.699-3.457-2.549-5.859-2.549c-2.266,0-4.16,0.86-5.684,2.578
		C552.235,331.799,551.483,333.947,551.483,336.505z"/>
	<path fill="#78D2F7" d="M591.063,345.558l-12.832-23.232h7.646l8.73,16.406l8.145-16.406h7.441l-22.734,44.062h-7.529
		L591.063,345.558z"/>
</g>
<g>
	<path fill="#00A1E4" d="M734.097,65.132V34.576h-5.01v-5.098h13.564c3.73,0,6.529,0.225,8.395,0.674
		c1.864,0.45,3.51,1.587,4.936,3.413c1.426,1.827,2.139,3.97,2.139,6.431c0,1.895-0.424,3.604-1.273,5.127s-2.096,2.676-3.736,3.457
		c2.266,0.781,4.01,2.076,5.23,3.882c1.22,1.807,1.83,3.872,1.83,6.196c0,2.012-0.453,3.838-1.361,5.479s-2.115,2.911-3.619,3.809
		c-1.504,0.898-3.148,1.504-4.936,1.816c-1.787,0.312-4.225,0.469-7.311,0.469h-13.857v-5.098H734.097z M740.249,46.441h3.838
		c2.93,0,4.977-0.513,6.139-1.538c1.161-1.025,1.742-2.534,1.742-4.526c0-3.867-2.627-5.801-7.881-5.801h-3.838V46.441z
		 M740.249,65.132h2.314c3.027,0,5.244-0.151,6.65-0.454c1.406-0.303,2.554-1.015,3.443-2.139c0.889-1.123,1.332-2.563,1.332-4.321
		c0-1.601-0.424-2.944-1.273-4.028s-1.944-1.806-3.281-2.168c-1.338-0.361-3.229-0.542-5.67-0.542h-3.516V65.132z"/>
	<path fill="#00A1E4" d="M795.913,65.279v4.951h-10.459v-3.252c-3.262,2.48-6.387,3.721-9.375,3.721
		c-1.895,0-3.461-0.415-4.701-1.245c-1.241-0.83-2.066-1.904-2.477-3.223s-0.615-3.442-0.615-6.372V46.822h-4.014v-4.951h9.58
		v17.285c0,2.09,0.059,3.497,0.176,4.219c0.117,0.723,0.459,1.318,1.025,1.787s1.279,0.703,2.139,0.703
		c2.578,0,5.332-1.23,8.262-3.691V46.822h-5.01v-4.951h10.576v23.408H795.913z"/>
	<path fill="#00A1E4" d="M833.853,65.279v4.951h-10.664v-4.16c-2.773,3.086-6.152,4.629-10.137,4.629
		c-3.691,0-6.934-1.26-9.727-3.779s-4.189-6.104-4.189-10.752c0-4.668,1.436-8.35,4.307-11.045s6.113-4.043,9.727-4.043
		c3.828,0,7.168,1.523,10.02,4.57V34.429h-5.449v-4.951h11.016v35.801H833.853z M805.083,56.021c0,3.125,0.884,5.527,2.652,7.207
		c1.768,1.68,3.881,2.52,6.342,2.52c2.383,0,4.498-0.883,6.344-2.651c1.846-1.768,2.768-4.214,2.768-7.339
		c0-3.145-0.941-5.518-2.826-7.119c-1.886-1.601-4-2.402-6.344-2.402c-2.52,0-4.639,0.942-6.357,2.827
		C805.942,50.948,805.083,53.267,805.083,56.021z"/>
	<path fill="#00A1E4" d="M871.353,65.279v4.951h-10.664v-4.16c-2.773,3.086-6.152,4.629-10.137,4.629
		c-3.691,0-6.934-1.26-9.727-3.779s-4.189-6.104-4.189-10.752c0-4.668,1.436-8.35,4.307-11.045s6.113-4.043,9.727-4.043
		c3.828,0,7.168,1.523,10.02,4.57V34.429h-5.449v-4.951h11.016v35.801H871.353z M842.583,56.021c0,3.125,0.884,5.527,2.652,7.207
		c1.768,1.68,3.881,2.52,6.342,2.52c2.383,0,4.498-0.883,6.344-2.651c1.846-1.768,2.768-4.214,2.768-7.339
		c0-3.145-0.941-5.518-2.826-7.119c-1.886-1.601-4-2.402-6.344-2.402c-2.52,0-4.639,0.942-6.357,2.827
		C843.442,50.948,842.583,53.267,842.583,56.021z"/>
	<path fill="#00A1E4" d="M884.536,69.732l-9.316-22.91h-4.717v-4.951h14.033v4.951h-3.398l6.123,15.703l6.006-15.703h-3.75v-4.951
		h13.74v4.951h-4.219l-14.033,36.123h-9.404v-4.863h5.537L884.536,69.732z"/>
	<path fill="#78D2F7" d="M905.864,70.23V55.435h5.098v3.604c2.441,4.434,5.635,6.65,9.58,6.65c2.012,0,3.711-0.615,5.098-1.846
		s2.08-2.842,2.08-4.834c0-1.934-0.566-3.325-1.699-4.175s-3.271-1.694-6.416-2.534c-3.652-0.977-6.357-1.899-8.115-2.769
		c-1.758-0.869-3.159-2.109-4.203-3.721c-1.045-1.611-1.568-3.52-1.568-5.728c0-3.417,1.139-6.147,3.414-8.188
		c2.274-2.041,5.131-3.062,8.568-3.062c3.262,0,6.289,1.055,9.082,3.164v-2.725h4.98v12.363h-4.98v-2.842
		c-2.09-3.145-4.971-4.717-8.643-4.717c-2.227,0-3.936,0.513-5.127,1.538s-1.787,2.251-1.787,3.677c0,1.094,0.303,2.056,0.908,2.886
		c0.605,0.831,1.377,1.44,2.314,1.831c0.938,0.391,2.783,0.937,5.539,1.638c3.594,0.935,6.201,1.808,7.822,2.619
		c1.621,0.811,3.017,2.164,4.188,4.059c1.171,1.895,1.757,4.073,1.757,6.534c0,3.479-1.226,6.351-3.676,8.616
		c-2.451,2.267-5.484,3.399-9.098,3.399c-3.711,0-7.051-1.337-10.02-4.014v3.369H905.864z"/>
	<path fill="#78D2F7" d="M968.823,65.279v4.951h-10.459v-3.252c-3.262,2.48-6.387,3.721-9.375,3.721
		c-1.895,0-3.461-0.415-4.701-1.245c-1.241-0.83-2.066-1.904-2.477-3.223s-0.615-3.442-0.615-6.372V46.822h-4.014v-4.951h9.58
		v17.285c0,2.09,0.059,3.497,0.176,4.219c0.117,0.723,0.459,1.318,1.025,1.787s1.279,0.703,2.139,0.703
		c2.578,0,5.332-1.23,8.262-3.691V46.822h-5.01v-4.951h10.576v23.408H968.823z"/>
	<path fill="#78D2F7" d="M975.767,65.279V46.822h-4.395v-4.951h9.961v23.408h4.395v4.951h-14.355v-4.951H975.767z M974.976,32.232
		c0-0.898,0.318-1.68,0.953-2.344c0.634-0.664,1.439-0.996,2.416-0.996c0.918,0,1.709,0.322,2.373,0.967s0.996,1.436,0.996,2.373
		s-0.332,1.733-0.996,2.388c-0.664,0.655-1.455,0.981-2.373,0.981c-0.938,0-1.732-0.332-2.387-0.996
		C975.303,33.941,974.976,33.15,974.976,32.232z"/>
	<path fill="#78D2F7" d="M988.745,46.822v-4.951h3.691v-4.365l5.566-5.098v9.463h5.244v4.951h-5.244v13.77
		c0,2.208,0.122,3.57,0.367,4.087c0.244,0.518,0.854,0.776,1.83,0.776c1.035,0,2.051-0.195,3.047-0.586v5.068
		c-1.426,0.508-2.852,0.762-4.277,0.762c-1.699,0-3.076-0.376-4.131-1.128s-1.719-1.694-1.992-2.827
		c-0.273-1.132-0.41-3.086-0.41-5.859V46.822H988.745z"/>
	<path fill="#78D2F7" d="M1037.202,57.457h-23.848c0.352,2.618,1.387,4.736,3.105,6.357c1.719,1.622,3.916,2.432,6.592,2.432
		c3.887,0,6.963-1.562,9.229-4.688l4.922,2.168c-1.602,2.48-3.682,4.321-6.24,5.522s-5.234,1.802-8.027,1.802
		c-4.336,0-8.041-1.352-11.117-4.058c-3.076-2.705-4.615-6.353-4.615-10.942c0-4.355,1.499-7.939,4.498-10.752
		c2.998-2.812,6.439-4.219,10.326-4.219c3.809,0,7.262,1.373,10.357,4.116C1035.479,47.94,1037.085,52.027,1037.202,57.457z
		 M1031.46,53.414c-0.391-1.992-1.426-3.794-3.105-5.405s-3.74-2.417-6.182-2.417c-2.227,0-4.131,0.728-5.713,2.183
		c-1.582,1.455-2.549,3.335-2.9,5.64H1031.46z"/>
</g>
<g>
	<path fill="#A1CD3A" d="M729.819,141.283v-14.795h5.098v3.604c2.441,4.434,5.635,6.65,9.58,6.65c2.012,0,3.711-0.615,5.098-1.846
		s2.08-2.842,2.08-4.834c0-1.934-0.566-3.325-1.699-4.175s-3.271-1.694-6.416-2.534c-3.652-0.977-6.357-1.899-8.115-2.769
		c-1.758-0.869-3.159-2.109-4.203-3.721c-1.045-1.611-1.568-3.52-1.568-5.728c0-3.417,1.139-6.147,3.414-8.188
		c2.274-2.041,5.131-3.062,8.568-3.062c3.262,0,6.289,1.055,9.082,3.164v-2.725h4.98v12.363h-4.98v-2.842
		c-2.09-3.145-4.971-4.717-8.643-4.717c-2.227,0-3.936,0.513-5.127,1.538s-1.787,2.251-1.787,3.677c0,1.094,0.303,2.056,0.908,2.886
		c0.605,0.831,1.377,1.44,2.314,1.831c0.938,0.391,2.783,0.937,5.539,1.638c3.594,0.935,6.201,1.808,7.822,2.619
		c1.621,0.811,3.017,2.164,4.188,4.059c1.171,1.895,1.757,4.073,1.757,6.534c0,3.479-1.226,6.351-3.676,8.616
		c-2.451,2.267-5.484,3.399-9.098,3.399c-3.711,0-7.051-1.337-10.02-4.014v3.369H729.819z"/>
	<path fill="#A1CD3A" d="M791.753,128.509h-23.848c0.352,2.618,1.387,4.736,3.105,6.357c1.719,1.622,3.916,2.432,6.592,2.432
		c3.887,0,6.963-1.562,9.229-4.688l4.922,2.168c-1.602,2.48-3.682,4.321-6.24,5.522s-5.234,1.802-8.027,1.802
		c-4.336,0-8.041-1.352-11.117-4.058c-3.076-2.705-4.615-6.353-4.615-10.942c0-4.355,1.499-7.939,4.498-10.752
		c2.998-2.812,6.439-4.219,10.326-4.219c3.809,0,7.262,1.373,10.357,4.116C790.029,118.993,791.636,123.08,791.753,128.509z
		 M786.011,124.466c-0.391-1.992-1.426-3.794-3.105-5.405s-3.74-2.417-6.182-2.417c-2.227,0-4.131,0.728-5.713,2.183
		c-1.582,1.455-2.549,3.335-2.9,5.64H786.011z"/>
	<path fill="#A1CD3A" d="M825.591,149.046h5.186v4.951h-16.26v-4.951h5.508v-11.338c-2.812,2.93-6.162,4.395-10.049,4.395
		c-3.535,0-6.723-1.318-9.564-3.955s-4.264-6.289-4.264-10.957c0-4.414,1.318-7.969,3.955-10.664s5.918-4.043,9.844-4.043
		c3.945,0,7.305,1.631,10.078,4.893v-4.453h10.342v4.951h-4.775V149.046z M820.112,127.513c0-3.047-0.933-5.493-2.797-7.339
		c-1.865-1.846-4.029-2.769-6.49-2.769c-2.383,0-4.457,0.869-6.225,2.607c-1.769,1.739-2.652,4.112-2.652,7.119
		c0,2.754,0.796,5.093,2.389,7.017c1.592,1.924,3.832,2.886,6.723,2.886c2.91,0,5.146-0.977,6.709-2.93
		C819.331,132.152,820.112,129.955,820.112,127.513z"/>
	<path fill="#78D2F7" d="M837.251,136.185v-30.557h-5.01v-5.098h13.564c3.73,0,6.529,0.225,8.395,0.674
		c1.864,0.45,3.51,1.587,4.936,3.413c1.426,1.827,2.139,3.97,2.139,6.431c0,1.895-0.424,3.604-1.273,5.127s-2.096,2.676-3.736,3.457
		c2.266,0.781,4.01,2.076,5.23,3.882c1.22,1.807,1.83,3.872,1.83,6.196c0,2.012-0.453,3.838-1.361,5.479s-2.115,2.911-3.619,3.809
		c-1.504,0.898-3.148,1.504-4.936,1.816c-1.787,0.312-4.225,0.469-7.311,0.469h-13.857v-5.098H837.251z M843.403,117.494h3.838
		c2.93,0,4.977-0.513,6.139-1.538c1.161-1.025,1.742-2.534,1.742-4.526c0-3.867-2.627-5.801-7.881-5.801h-3.838V117.494z
		 M843.403,136.185h2.314c3.027,0,5.244-0.151,6.65-0.454c1.406-0.303,2.554-1.015,3.443-2.139c0.889-1.123,1.332-2.563,1.332-4.321
		c0-1.601-0.424-2.944-1.273-4.028s-1.944-1.806-3.281-2.168c-1.338-0.361-3.229-0.542-5.67-0.542h-3.516V136.185z"/>
	<path fill="#78D2F7" d="M899.067,136.332v4.951h-10.459v-3.252c-3.262,2.48-6.387,3.721-9.375,3.721
		c-1.895,0-3.461-0.415-4.701-1.245c-1.241-0.83-2.066-1.904-2.477-3.223s-0.615-3.442-0.615-6.372v-13.037h-4.014v-4.951h9.58
		v17.285c0,2.09,0.059,3.497,0.176,4.219c0.117,0.723,0.459,1.318,1.025,1.787s1.279,0.703,2.139,0.703
		c2.578,0,5.332-1.23,8.262-3.691v-15.352h-5.01v-4.951h10.576v23.408H899.067z"/>
	<path fill="#78D2F7" d="M937.007,136.332v4.951h-10.664v-4.16c-2.773,3.086-6.152,4.629-10.137,4.629
		c-3.691,0-6.934-1.26-9.727-3.779s-4.189-6.104-4.189-10.752c0-4.668,1.436-8.35,4.307-11.045s6.113-4.043,9.727-4.043
		c3.828,0,7.168,1.523,10.02,4.57v-11.221h-5.449v-4.951h11.016v35.801H937.007z M908.237,127.074c0,3.125,0.884,5.527,2.652,7.207
		c1.768,1.68,3.881,2.52,6.342,2.52c2.383,0,4.498-0.883,6.344-2.651c1.846-1.768,2.768-4.214,2.768-7.339
		c0-3.145-0.941-5.518-2.826-7.119c-1.886-1.601-4-2.402-6.344-2.402c-2.52,0-4.639,0.942-6.357,2.827
		C909.097,122.001,908.237,124.32,908.237,127.074z"/>
	<path fill="#78D2F7" d="M974.507,136.332v4.951h-10.664v-4.16c-2.773,3.086-6.152,4.629-10.137,4.629
		c-3.691,0-6.934-1.26-9.727-3.779s-4.189-6.104-4.189-10.752c0-4.668,1.436-8.35,4.307-11.045s6.113-4.043,9.727-4.043
		c3.828,0,7.168,1.523,10.02,4.57v-11.221h-5.449v-4.951h11.016v35.801H974.507z M945.737,127.074c0,3.125,0.884,5.527,2.652,7.207
		c1.768,1.68,3.881,2.52,6.342,2.52c2.383,0,4.498-0.883,6.344-2.651c1.846-1.768,2.768-4.214,2.768-7.339
		c0-3.145-0.941-5.518-2.826-7.119c-1.886-1.601-4-2.402-6.344-2.402c-2.52,0-4.639,0.942-6.357,2.827
		C946.597,122.001,945.737,124.32,945.737,127.074z"/>
	<path fill="#78D2F7" d="M987.69,140.785l-9.316-22.91h-4.717v-4.951h14.033v4.951h-3.398l6.123,15.703l6.006-15.703h-3.75v-4.951
		h13.74v4.951h-4.219l-14.033,36.123h-9.404v-4.863h5.537L987.69,140.785z"/>
</g>
<g>
	<path fill="#F7941E" d="M734.067,207.764v-30.557h-5.127v-5.098h14.561c4.277,0,7.48,0.303,9.609,0.908
		c2.129,0.605,3.912,1.978,5.348,4.116s2.152,4.663,2.152,7.573c0,2.325-0.473,4.409-1.42,6.255
		c-0.948,1.846-2.12,3.208-3.516,4.087c-1.396,0.879-2.97,1.47-4.717,1.772c-1.748,0.303-4.391,0.454-7.926,0.454h-2.812v10.488
		h5.273v5.098H728.94v-5.098H734.067z M740.22,192.354h3.516c4.004,0,6.777-0.571,8.32-1.714s2.314-3.159,2.314-6.05
		c0-1.835-0.41-3.359-1.23-4.57c-0.82-1.211-1.836-1.982-3.047-2.314c-1.211-0.332-3.232-0.498-6.064-0.498h-3.809V192.354z"/>
	<path fill="#F7941E" d="M768.491,207.911v-30.85h-5.127v-4.951h10.693v15.645c3.34-2.695,6.514-4.043,9.521-4.043
		c1.875,0,3.418,0.391,4.629,1.172c1.211,0.781,2.037,1.812,2.477,3.091c0.439,1.279,0.658,3.149,0.658,5.61v14.326h4.834v4.951
		h-10.4v-17.344c0-2.148-0.068-3.584-0.205-4.307c-0.137-0.722-0.512-1.318-1.127-1.787s-1.344-0.703-2.184-0.703
		c-2.148,0-4.883,1.221-8.203,3.662v15.527h4.922v4.951h-15.615v-4.951H768.491z"/>
	<path fill="#F7941E" d="M809.272,212.364l-9.316-22.91h-4.717v-4.951h14.033v4.951h-3.398l6.123,15.703l6.006-15.703h-3.75v-4.951
		h13.74v4.951h-4.219l-14.033,36.123h-9.404v-4.863h5.537L809.272,212.364z"/>
	<path fill="#F7941E" d="M834.761,207.911v-30.85h-5.039v-4.951h10.605v35.801h4.336v4.951h-14.941v-4.951H834.761z"/>
	<path fill="#F7941E" d="M848.325,198.682c0-4.375,1.445-7.964,4.336-10.767c2.891-2.802,6.416-4.204,10.576-4.204
		c4.082,0,7.588,1.382,10.518,4.146c2.93,2.764,4.395,6.372,4.395,10.825s-1.46,8.067-4.379,10.84
		c-2.92,2.773-6.432,4.16-10.533,4.16c-4.219,0-7.759-1.406-10.619-4.219C849.757,206.651,848.325,203.058,848.325,198.682z
		 M854.214,198.667c0,2.799,0.875,5.093,2.623,6.882c1.747,1.789,3.881,2.684,6.4,2.684c2.559,0,4.703-0.904,6.432-2.713
		c1.729-1.808,2.592-4.092,2.592-6.853c0-2.779-0.879-5.068-2.637-6.867s-3.887-2.698-6.387-2.698c-2.617,0-4.775,0.919-6.475,2.757
		S854.214,195.966,854.214,198.667z"/>
	<path fill="#78D2F7" d="M886.792,207.764v-30.557h-5.01v-5.098h13.564c3.73,0,6.529,0.225,8.395,0.674
		c1.864,0.45,3.51,1.587,4.936,3.413c1.426,1.827,2.139,3.97,2.139,6.431c0,1.895-0.424,3.604-1.273,5.127s-2.096,2.676-3.736,3.457
		c2.266,0.781,4.01,2.076,5.23,3.882c1.22,1.807,1.83,3.872,1.83,6.196c0,2.012-0.453,3.838-1.361,5.479s-2.115,2.911-3.619,3.809
		c-1.504,0.898-3.148,1.504-4.936,1.816c-1.787,0.312-4.225,0.469-7.311,0.469h-13.857v-5.098H886.792z M892.944,189.073h3.838
		c2.93,0,4.977-0.513,6.139-1.538c1.161-1.025,1.742-2.534,1.742-4.526c0-3.867-2.627-5.801-7.881-5.801h-3.838V189.073z
		 M892.944,207.764h2.314c3.027,0,5.244-0.151,6.65-0.454c1.406-0.303,2.554-1.015,3.443-2.139c0.889-1.123,1.332-2.563,1.332-4.321
		c0-1.601-0.424-2.944-1.273-4.028s-1.944-1.806-3.281-2.168c-1.338-0.361-3.229-0.542-5.67-0.542h-3.516V207.764z"/>
	<path fill="#78D2F7" d="M948.608,207.911v4.951h-10.459v-3.252c-3.262,2.48-6.387,3.721-9.375,3.721
		c-1.895,0-3.461-0.415-4.701-1.245c-1.241-0.83-2.066-1.904-2.477-3.223s-0.615-3.442-0.615-6.372v-13.037h-4.014v-4.951h9.58
		v17.285c0,2.09,0.059,3.497,0.176,4.219c0.117,0.723,0.459,1.318,1.025,1.787s1.279,0.703,2.139,0.703
		c2.578,0,5.332-1.23,8.262-3.691v-15.352h-5.01v-4.951h10.576v23.408H948.608z"/>
	<path fill="#78D2F7" d="M986.548,207.911v4.951h-10.664v-4.16c-2.773,3.086-6.152,4.629-10.137,4.629
		c-3.691,0-6.934-1.26-9.727-3.779s-4.189-6.104-4.189-10.752c0-4.668,1.436-8.35,4.307-11.045s6.113-4.043,9.727-4.043
		c3.828,0,7.168,1.523,10.02,4.57v-11.221h-5.449v-4.951h11.016v35.801H986.548z M957.778,198.653c0,3.125,0.884,5.527,2.652,7.207
		c1.768,1.68,3.881,2.52,6.342,2.52c2.383,0,4.498-0.883,6.344-2.651c1.846-1.768,2.768-4.214,2.768-7.339
		c0-3.145-0.941-5.518-2.826-7.119c-1.886-1.601-4-2.402-6.344-2.402c-2.52,0-4.639,0.942-6.357,2.827
		C958.638,193.58,957.778,195.899,957.778,198.653z"/>
	<path fill="#78D2F7" d="M1024.049,207.911v4.951h-10.664v-4.16c-2.774,3.086-6.153,4.629-10.138,4.629
		c-3.691,0-6.934-1.26-9.727-3.779s-4.189-6.104-4.189-10.752c0-4.668,1.436-8.35,4.307-11.045s6.113-4.043,9.727-4.043
		c3.828,0,7.168,1.523,10.021,4.57v-11.221h-5.45v-4.951h11.017v35.801H1024.049z M995.278,198.653c0,3.125,0.884,5.527,2.652,7.207
		c1.768,1.68,3.881,2.52,6.342,2.52c2.383,0,4.498-0.883,6.344-2.651c1.846-1.768,2.769-4.214,2.769-7.339
		c0-3.145-0.942-5.518-2.827-7.119c-1.886-1.601-4-2.402-6.344-2.402c-2.52,0-4.639,0.942-6.357,2.827
		C996.138,193.58,995.278,195.899,995.278,198.653z"/>
	<path fill="#78D2F7" d="M1037.232,212.364l-9.316-22.91h-4.717v-4.951h14.033v4.951h-3.398l6.123,15.703l6.006-15.703h-3.75v-4.951
		h13.74v4.951h-4.219l-14.033,36.123h-9.404v-4.863h5.537L1037.232,212.364z"/>
</g>
<g>
	<path fill="#ED1261" d="M756.174,263.272h-14.682l-3.118,9.229h4.951v5.098h-16.055v-5.098h4.932l11.127-31.055h-4.926v-4.6h20.83
		v4.6h-5.094l11.404,31.055h4.559v5.098h-15.967v-5.098h5.068L756.174,263.272z M754.638,258.497l-5.424-17.051h-0.557
		l-5.645,17.051H754.638z"/>
	<path fill="#ED1261" d="M775.874,272.648v-30.85h-5.039v-4.951h10.605v35.801h4.336v4.951h-14.941v-4.951H775.874z"/>
	<path fill="#ED1261" d="M793.511,272.648V254.19h-4.395v-4.951h9.961v23.409h4.395v4.951h-14.355v-4.951H793.511z M792.72,239.601
		c0-0.898,0.318-1.68,0.953-2.344c0.634-0.664,1.439-0.996,2.416-0.996c0.918,0,1.709,0.322,2.373,0.967s0.996,1.436,0.996,2.373
		s-0.332,1.733-0.996,2.388c-0.664,0.655-1.455,0.981-2.373,0.981c-0.938,0-1.732-0.332-2.387-0.996
		C793.047,241.31,792.72,240.519,792.72,239.601z"/>
	<path fill="#ED1261" d="M841.499,249.239v4.951h-5.098v21.124c0,2.852-0.146,4.965-0.439,6.342s-1,2.783-2.123,4.219
		c-1.124,1.436-2.809,2.642-5.055,3.619c-2.246,0.977-4.756,1.465-7.529,1.465c-4.18,0-7.91-1.26-11.191-3.779l3.633-4.043
		c2.461,1.914,5.137,2.871,8.027,2.871c1.602,0,3.086-0.309,4.453-0.924s2.389-1.361,3.062-2.24s1.107-1.715,1.303-2.506
		s0.293-2.123,0.293-3.998v-2.578c-0.879,1.113-2.256,2.168-4.131,3.164s-3.926,1.494-6.152,1.494c-4.062,0-7.373-1.406-9.932-4.219
		s-3.838-6.27-3.838-10.371c0-4.493,1.411-8.12,4.234-10.884c2.822-2.764,6.088-4.146,9.799-4.146c3.75,0,7.09,1.494,10.02,4.482
		v-4.043H841.499z M812.7,263.712c0,2.871,0.836,5.215,2.506,7.031s3.803,2.725,6.4,2.725c2.539,0,4.727-0.913,6.562-2.74
		c1.836-1.826,2.754-4.174,2.754-7.045c0-2.911-0.918-5.249-2.754-7.017c-1.836-1.768-3.965-2.651-6.387-2.651
		s-4.541,0.875-6.357,2.622C813.608,258.385,812.7,260.743,812.7,263.712z"/>
	<path fill="#ED1261" d="M854.331,249.239v3.428c3.574-2.578,6.836-3.867,9.785-3.867c1.836,0,3.355,0.435,4.557,1.304
		c1.201,0.869,1.986,1.934,2.357,3.193s0.557,3.101,0.557,5.522v13.829h4.775v4.951h-10.342v-18.545
		c0-2.148-0.322-3.549-0.967-4.204c-0.645-0.654-1.436-0.981-2.373-0.981c-2.461,0-5.244,1.201-8.35,3.604v15.176h4.893v4.951
		h-15.439v-4.951h4.98V254.19h-4.98v-4.951H854.331z"/>
	<path fill="#78D2F7" d="M882.925,272.501v-30.557h-5.01v-5.098h13.564c3.73,0,6.529,0.225,8.395,0.674
		c1.864,0.45,3.51,1.587,4.936,3.413c1.426,1.827,2.139,3.97,2.139,6.431c0,1.895-0.424,3.604-1.273,5.127s-2.096,2.676-3.736,3.457
		c2.266,0.781,4.01,2.076,5.23,3.882c1.22,1.807,1.83,3.873,1.83,6.197c0,2.012-0.453,3.838-1.361,5.479s-2.115,2.91-3.619,3.809
		s-3.148,1.504-4.936,1.816s-4.225,0.469-7.311,0.469h-13.857v-5.098H882.925z M889.077,253.81h3.838
		c2.93,0,4.977-0.513,6.139-1.538c1.161-1.025,1.742-2.534,1.742-4.526c0-3.867-2.627-5.801-7.881-5.801h-3.838V253.81z
		 M889.077,272.501h2.314c3.027,0,5.244-0.151,6.65-0.455c1.406-0.303,2.554-1.015,3.443-2.139c0.889-1.123,1.332-2.562,1.332-4.32
		c0-1.602-0.424-2.945-1.273-4.029s-1.944-1.806-3.281-2.168c-1.338-0.361-3.229-0.542-5.67-0.542h-3.516V272.501z"/>
	<path fill="#78D2F7" d="M944.741,272.648v4.951h-10.459v-3.252c-3.262,2.48-6.387,3.721-9.375,3.721
		c-1.895,0-3.461-0.416-4.701-1.246c-1.241-0.83-2.066-1.904-2.477-3.223s-0.615-3.441-0.615-6.371V254.19h-4.014v-4.951h9.58
		v17.286c0,2.09,0.059,3.496,0.176,4.219s0.459,1.318,1.025,1.787s1.279,0.703,2.139,0.703c2.578,0,5.332-1.23,8.262-3.691V254.19
		h-5.01v-4.951h10.576v23.409H944.741z"/>
	<path fill="#78D2F7" d="M982.681,272.648v4.951h-10.664v-4.16c-2.773,3.086-6.152,4.629-10.137,4.629
		c-3.691,0-6.934-1.26-9.727-3.779s-4.189-6.104-4.189-10.752c0-4.668,1.436-8.35,4.307-11.045s6.113-4.043,9.727-4.043
		c3.828,0,7.168,1.523,10.02,4.57v-11.221h-5.449v-4.951h11.016v35.801H982.681z M953.911,263.39c0,3.125,0.884,5.527,2.652,7.207
		c1.768,1.68,3.881,2.52,6.342,2.52c2.383,0,4.498-0.884,6.344-2.652c1.846-1.768,2.768-4.213,2.768-7.338
		c0-3.145-0.941-5.518-2.826-7.119c-1.886-1.601-4-2.402-6.344-2.402c-2.52,0-4.639,0.942-6.357,2.827
		C954.771,258.317,953.911,260.636,953.911,263.39z"/>
	<path fill="#78D2F7" d="M1020.182,272.648v4.951h-10.665v-4.16c-2.773,3.086-6.152,4.629-10.137,4.629
		c-3.691,0-6.934-1.26-9.727-3.779s-4.189-6.104-4.189-10.752c0-4.668,1.436-8.35,4.307-11.045s6.113-4.043,9.727-4.043
		c3.828,0,7.168,1.523,10.02,4.57v-11.221h-5.449v-4.951h11.017v35.801H1020.182z M991.411,263.39c0,3.125,0.884,5.527,2.652,7.207
		c1.768,1.68,3.881,2.52,6.342,2.52c2.383,0,4.498-0.884,6.344-2.652c1.846-1.768,2.768-4.213,2.768-7.338
		c0-3.145-0.941-5.518-2.826-7.119c-1.886-1.601-4-2.402-6.344-2.402c-2.52,0-4.639,0.942-6.357,2.827
		C992.271,258.317,991.411,260.636,991.411,263.39z"/>
	<path fill="#78D2F7" d="M1033.365,277.101l-9.316-22.911h-4.717v-4.951h14.033v4.951h-3.398l6.123,15.704l6.006-15.704h-3.75
		v-4.951h13.74v4.951h-4.219l-14.033,36.124h-9.404v-4.863h5.537L1033.365,277.101z"/>
</g>
<g>
	<path fill="#90278F" d="M734.038,337.763v-30.557h-5.537v-5.098h15.762c4.355,0,7.71,0.225,10.064,0.674
		c2.354,0.45,4.633,1.465,6.84,3.047s3.971,3.756,5.289,6.52s1.977,5.913,1.977,9.447c0,4.024-0.635,7.52-1.904,10.488
		c-1.27,2.97-2.934,5.186-4.994,6.65c-2.062,1.465-4.512,2.486-7.354,3.062s-6.461,0.863-10.855,0.863h-14.824v-5.098H734.038z
		 M740.19,337.763h3.223c3.594,0,6.441-0.224,8.541-0.674c2.099-0.449,3.871-1.215,5.316-2.299s2.617-2.721,3.516-4.908
		c0.898-2.187,1.348-4.765,1.348-7.734c0-3.534-0.736-6.533-2.211-8.994c-1.476-2.461-3.359-4.066-5.654-4.818
		c-2.296-0.752-5.826-1.129-10.592-1.129h-3.486V337.763z"/>
	<path fill="#90278F" d="M777.837,337.763v-30.557h-5.01v-5.098h13.564c3.73,0,6.529,0.225,8.395,0.674
		c1.864,0.45,3.51,1.588,4.936,3.414s2.139,3.969,2.139,6.43c0,1.895-0.424,3.604-1.273,5.127s-2.096,2.677-3.736,3.457
		c2.266,0.781,4.01,2.076,5.23,3.883c1.22,1.807,1.83,3.871,1.83,6.195c0,2.012-0.453,3.838-1.361,5.479s-2.115,2.911-3.619,3.809
		c-1.504,0.898-3.148,1.505-4.936,1.816c-1.787,0.312-4.225,0.469-7.311,0.469h-13.857v-5.098H777.837z M783.989,319.072h3.838
		c2.93,0,4.977-0.512,6.139-1.537c1.161-1.025,1.742-2.535,1.742-4.527c0-3.867-2.627-5.801-7.881-5.801h-3.838V319.072z
		 M783.989,337.763h2.314c3.027,0,5.244-0.15,6.65-0.453s2.554-1.016,3.443-2.139c0.889-1.123,1.332-2.564,1.332-4.322
		c0-1.601-0.424-2.943-1.273-4.027s-1.944-1.807-3.281-2.168c-1.338-0.361-3.229-0.543-5.67-0.543h-3.516V337.763z"/>
	<path fill="#78D2F7" d="M812.817,337.763v-30.557h-5.01v-5.098h13.564c3.73,0,6.529,0.225,8.395,0.674
		c1.864,0.45,3.51,1.588,4.936,3.414s2.139,3.969,2.139,6.43c0,1.895-0.424,3.604-1.273,5.127s-2.096,2.677-3.736,3.457
		c2.266,0.781,4.01,2.076,5.23,3.883c1.22,1.807,1.83,3.871,1.83,6.195c0,2.012-0.453,3.838-1.361,5.479s-2.115,2.911-3.619,3.809
		c-1.504,0.898-3.148,1.505-4.936,1.816c-1.787,0.312-4.225,0.469-7.311,0.469h-13.857v-5.098H812.817z M818.97,319.072h3.838
		c2.93,0,4.977-0.512,6.139-1.537c1.161-1.025,1.742-2.535,1.742-4.527c0-3.867-2.627-5.801-7.881-5.801h-3.838V319.072z
		 M818.97,337.763h2.314c3.027,0,5.244-0.15,6.65-0.453s2.554-1.016,3.443-2.139c0.889-1.123,1.332-2.564,1.332-4.322
		c0-1.601-0.424-2.943-1.273-4.027s-1.944-1.807-3.281-2.168c-1.338-0.361-3.229-0.543-5.67-0.543h-3.516V337.763z"/>
	<path fill="#78D2F7" d="M874.634,337.91v4.951h-10.459v-3.252c-3.262,2.48-6.387,3.721-9.375,3.721
		c-1.895,0-3.461-0.414-4.701-1.244c-1.241-0.83-2.066-1.904-2.477-3.223s-0.615-3.443-0.615-6.373v-13.037h-4.014v-4.951h9.58
		v17.285c0,2.091,0.059,3.497,0.176,4.219c0.117,0.723,0.459,1.318,1.025,1.787s1.279,0.703,2.139,0.703
		c2.578,0,5.332-1.23,8.262-3.691v-15.352h-5.01v-4.951h10.576v23.408H874.634z"/>
	<path fill="#78D2F7" d="M912.573,337.91v4.951h-10.664v-4.16c-2.773,3.087-6.152,4.629-10.137,4.629
		c-3.691,0-6.934-1.26-9.727-3.779s-4.189-6.104-4.189-10.752c0-4.668,1.436-8.35,4.307-11.045s6.113-4.043,9.727-4.043
		c3.828,0,7.168,1.523,10.02,4.57V307.06h-5.449v-4.951h11.016v35.801H912.573z M883.804,328.652c0,3.125,0.884,5.527,2.652,7.207
		c1.768,1.681,3.881,2.52,6.342,2.52c2.383,0,4.498-0.883,6.344-2.65s2.768-4.215,2.768-7.34c0-3.145-0.941-5.518-2.826-7.119
		c-1.886-1.601-4-2.402-6.344-2.402c-2.52,0-4.639,0.943-6.357,2.828S883.804,325.898,883.804,328.652z"/>
	<path fill="#78D2F7" d="M950.073,337.91v4.951h-10.664v-4.16c-2.773,3.087-6.152,4.629-10.137,4.629
		c-3.691,0-6.934-1.26-9.727-3.779s-4.189-6.104-4.189-10.752c0-4.668,1.436-8.35,4.307-11.045s6.113-4.043,9.727-4.043
		c3.828,0,7.168,1.523,10.02,4.57V307.06h-5.449v-4.951h11.016v35.801H950.073z M921.304,328.652c0,3.125,0.884,5.527,2.652,7.207
		c1.768,1.681,3.881,2.52,6.342,2.52c2.383,0,4.498-0.883,6.344-2.65s2.768-4.215,2.768-7.34c0-3.145-0.941-5.518-2.826-7.119
		c-1.886-1.601-4-2.402-6.344-2.402c-2.52,0-4.639,0.943-6.357,2.828S921.304,325.898,921.304,328.652z"/>
	<path fill="#78D2F7" d="M963.257,342.363l-9.316-22.91h-4.717v-4.951h14.033v4.951h-3.398l6.123,15.703l6.006-15.703h-3.75v-4.951
		h13.74v4.951h-4.219l-14.033,36.123h-9.404v-4.863h5.537L963.257,342.363z"/>
</g>
</svg>
