<svg xmlns="http://www.w3.org/2000/svg" xmlns:xlink="http://www.w3.org/1999/xlink" version="1.1" x="0px" y="0px" width="543px" height="248px" viewBox="0 0 543 248" enable-background="new 0 0 543 248" xml:space="preserve"><style>.style0{stroke:	#231F20;stroke-width:	0.8376;stroke-miterlimit:	10;fill:	#FFFFFF;}.style1{fill:	none;}.style2{font-size:	33;font-family:	'Papyrus';}.style3{stroke:	#231F20;stroke-width:	0.7674;stroke-miterlimit:	10;fill:	#FFFFFF;}</style><ellipse cx="263" cy="84.8" rx="195.2" ry="76" class="style0"/><ellipse cx="119.8" cy="124" rx="115.4" ry="54" class="style0"/><ellipse cx="424.3" cy="118.6" rx="114.9" ry="47.5" class="style0"/><path d="M124.644 82.232c0-22.054 61.504-39.934 137.374-39.934c75.869 0 137.4 17.9 137.4 39.9" class="style1"/><text transform="matrix(0.8977 -0.4406 0.4406 0.8977 140.3701 63.564)"><tspan x="0" y="0" class="style2"> </tspan><tspan x="6.9" y="-0.4" rotate="7.211" class="style2">T</tspan><tspan x="29" y="2.5" rotate="13.15" class="style2">h</tspan><tspan x="47" y="6.8" rotate="16.744" class="style2">e</tspan><tspan x="63.5" y="11.8" rotate="18.784" class="style2"> </tspan><tspan x="70.4" y="14" rotate="21.048" class="style2">B</tspan><tspan x="92.5" y="22.6" rotate="23.781" class="style2">u</tspan><tspan x="109.2" y="29.9" rotate="25.874" class="style2">d</tspan><tspan x="126.9" y="38.6" rotate="28.48" class="style2">d</tspan><tspan x="144.3" y="48" rotate="30.905" class="style2">y</tspan><tspan x="159.4" y="57.2" rotate="32.68" class="style2"> </tspan><tspan x="165.6" y="61" rotate="34.951" class="style2">S</tspan><tspan x="182.9" y="73.1" rotate="38.774" class="style2">u</tspan><tspan x="197" y="84.6" rotate="41.934" class="style2">i</tspan><tspan x="202" y="88.9" rotate="44.944" class="style2">t</tspan><tspan x="210.2" y="96.7" rotate="51.768" class="style2">e</tspan></text><text transform="matrix(1 0 0 1 20.9956 119.9585)" class="style2">PhyloBuddy</text><text transform="matrix(1 0 0 1 374.9961 127.2935)" class="style2">DbBuddy</text><ellipse cx="300.9" cy="160.8" rx="113.6" ry="57.1" class="style0"/><text transform="matrix(1 0 0 1 233.3291 165.626)" class="style2">AlignBuddy</text><ellipse cx="148.6" cy="187.1" rx="105.3" ry="56.6" class="style3"/><text transform="matrix(1 0 0 1 67.3296 192.96)" class="style2">SeqBuddy</text></svg>