<?xml version="1.0" encoding="utf-8"?>
<!-- Generator: Adobe Illustrator 16.0.4, SVG Export Plug-In . SVG Version: 6.00 Build 0)  -->
<!DOCTYPE svg PUBLIC "-//W3C//DTD SVG 1.1//EN" "http://www.w3.org/Graphics/SVG/1.1/DTD/svg11.dtd">
<svg version="1.1" id="Layer_1" xmlns="http://www.w3.org/2000/svg" xmlns:xlink="http://www.w3.org/1999/xlink" x="0px" y="0px"
	 width="509.197px" height="232.741px" viewBox="0 0 509.197 232.741" enable-background="new 0 0 509.197 232.741"
	 xml:space="preserve">
<path fill="#EC1261" d="M41.906,48.229H17.247l-6.417,13.99H1.466L29.968,1l27.495,61.219h-9.513L41.906,48.229z M38.362,40.06
	l-8.543-19.586L20.865,40.06H38.362z"/>
<path fill="#EC1261" d="M98.945,48.229H74.286l-6.417,13.99h-9.364L87.007,1l27.495,61.219h-9.513L98.945,48.229z M95.401,40.06
	l-8.543-19.586L77.904,40.06H95.401z"/>
<path fill="#EC1261" d="M158.924,7.696v10.278c-5.024-4.203-10.222-6.305-15.594-6.305c-5.92,0-10.906,2.126-14.96,6.379
	c-4.079,4.229-6.118,9.401-6.118,15.519c0,6.044,2.039,11.143,6.118,15.296c4.078,4.154,9.077,6.23,14.997,6.23
	c3.059,0,5.657-0.497,7.797-1.492c1.194-0.497,2.431-1.169,3.712-2.015c1.281-0.845,2.63-1.865,4.048-3.059v10.501
	c-4.975,2.824-10.197,4.235-15.669,4.235c-8.232,0-15.258-2.873-21.078-8.618c-5.795-5.794-8.691-12.783-8.691-20.966
	c0-7.337,2.425-13.878,7.274-19.623C126.729,7.019,134.451,3.5,143.927,3.5C149.1,3.5,154.099,4.898,158.924,7.696z"/>
<path fill="#EC1261" d="M185.258,12.789v49.431h-8.692V12.789h-13.244v-8.17h35.143v8.17H185.258z"/>
<path fill="#EC1261" d="M237.026,48.229h-24.659l-6.417,13.99h-9.364L225.088,1l27.495,61.219h-9.513L237.026,48.229z
	 M233.482,40.06l-8.543-19.586l-8.954,19.586H233.482z"/>
<path fill="#EC1261" d="M281.678,32.225h23.801v1.902c0,4.328-0.51,8.158-1.53,11.491c-0.995,3.084-2.674,5.969-5.036,8.655
	c-5.348,6.019-12.149,9.028-20.407,9.028c-8.058,0-14.959-2.91-20.705-8.73c-5.745-5.844-8.618-12.857-8.618-21.041
	c0-8.356,2.922-15.445,8.767-21.265C263.795,6.422,270.908,3.5,279.29,3.5c4.501,0,8.705,0.916,12.609,2.748
	c3.73,1.833,7.399,4.809,11.005,8.929l-6.193,5.932c-4.726-6.292-10.483-9.438-17.273-9.438c-6.094,0-11.205,2.102-15.333,6.305
	c-4.129,4.129-6.193,9.302-6.193,15.52c0,6.417,2.3,11.702,6.901,15.855c4.303,3.855,8.966,5.782,13.99,5.782
	c4.277,0,8.12-1.438,11.527-4.316c3.407-2.902,5.31-6.375,5.708-10.419h-14.363V32.225z"/>
<path fill="#EC1261" d="M347.286,48.229h-24.659l-6.417,13.99h-9.364L335.348,1l27.495,61.219h-9.513L347.286,48.229z
	 M343.742,40.06l-8.543-19.586l-8.954,19.586H343.742z"/>
<path fill="#EC1261" d="M387.773,12.789v49.431h-8.692V12.789h-13.243v-8.17h35.142v8.17H387.773z"/>
<path fill="#EC1261" d="M434.504,12.789v49.431h-8.692V12.789h-13.243v-8.17h35.142v8.17H434.504z"/>
<path fill="#EC1261" d="M479.555,32.225h23.802v1.902c0,4.328-0.51,8.158-1.529,11.491c-0.995,3.084-2.674,5.969-5.037,8.655
	c-5.348,6.019-12.149,9.028-20.406,9.028c-8.058,0-14.96-2.91-20.705-8.73c-5.745-5.844-8.617-12.857-8.617-21.041
	c0-8.356,2.922-15.445,8.767-21.265c5.845-5.844,12.958-8.767,21.339-8.767c4.502,0,8.705,0.916,12.61,2.748
	c3.73,1.833,7.398,4.809,11.005,8.929l-6.192,5.932c-4.727-6.292-10.483-9.438-17.273-9.438c-6.094,0-11.204,2.102-15.333,6.305
	c-4.128,4.129-6.192,9.302-6.192,15.52c0,6.417,2.3,11.702,6.901,15.855c4.303,3.855,8.966,5.782,13.99,5.782
	c4.277,0,8.12-1.438,11.527-4.316c3.407-2.902,5.31-6.375,5.708-10.419h-14.363V32.225z"/>
<path fill="#77D1F6" d="M25.137,75.289h8.655v71.963h-8.655V75.289z"/>
<path fill="#77D1F6" d="M82.176,75.289h8.655v71.963h-8.655V75.289z"/>
<path fill="#77D1F6" d="M176.565,75.289h8.655v71.963h-8.655V75.289z"/>
<path fill="#77D1F6" d="M330.517,75.289h8.655v71.963h-8.655V75.289z"/>
<path fill="#77D1F6" d="M379.081,75.289h8.655v71.963h-8.655V75.289z"/>
<path fill="#77D1F6" d="M425.812,75.289h8.655v71.963h-8.655V75.289z"/>
<path fill="#EC1261" d="M41.906,215.092H17.247l-6.417,13.99H1.466l28.502-61.219l27.495,61.219h-9.513L41.906,215.092z
	 M38.362,206.922l-8.543-19.586l-8.954,19.586H38.362z"/>
<path fill="#EC1261" d="M98.945,215.092H74.286l-6.417,13.99h-9.364l28.502-61.219l27.495,61.219h-9.513L98.945,215.092z
	 M95.401,206.922l-8.543-19.586l-8.954,19.586H95.401z"/>
<path fill="#EC1261" d="M140.569,179.651v49.431h-8.692v-49.431h-13.244v-8.17h35.143v8.17H140.569z"/>
<path fill="#EC1261" d="M185.258,179.651v49.431h-8.692v-49.431h-13.244v-8.17h35.143v8.17H185.258z"/>
<path fill="#EC1261" d="M228.931,199.088h23.801v1.902c0,4.328-0.51,8.158-1.53,11.491c-0.995,3.084-2.674,5.969-5.036,8.655
	c-5.348,6.019-12.149,9.028-20.407,9.028c-8.058,0-14.959-2.91-20.705-8.73c-5.745-5.844-8.618-12.857-8.618-21.041
	c0-8.356,2.922-15.445,8.767-21.265c5.844-5.844,12.958-8.767,21.339-8.767c4.501,0,8.705,0.916,12.609,2.748
	c3.73,1.833,7.399,4.809,11.005,8.929l-6.193,5.932c-4.726-6.292-10.483-9.438-17.273-9.438c-6.094,0-11.205,2.102-15.333,6.305
	c-4.129,4.129-6.193,9.302-6.193,15.52c0,6.417,2.3,11.702,6.901,15.855c4.303,3.855,8.966,5.782,13.99,5.782
	c4.277,0,8.12-1.438,11.527-4.316c3.407-2.902,5.31-6.375,5.708-10.419h-14.363V199.088z"/>
<path fill="#EC1261" d="M289.773,215.092h-24.659l-6.417,13.99h-9.364l28.502-61.219l27.495,61.219h-9.513L289.773,215.092z
	 M286.229,206.922l-8.543-19.586l-8.954,19.586H286.229z"/>
<path fill="#EC1261" d="M347.286,215.092h-24.659l-6.417,13.99h-9.364l28.502-61.219l27.495,61.219h-9.513L347.286,215.092z
	 M343.742,206.922l-8.543-19.586l-8.954,19.586H343.742z"/>
<path fill="#EC1261" d="M387.773,179.651v49.431h-8.692v-49.431h-13.243v-8.17h35.142v8.17H387.773z"/>
<path fill="#EC1261" d="M434.504,179.651v49.431h-8.692v-49.431h-13.243v-8.17h35.142v8.17H434.504z"/>
<path fill="#EC1261" d="M487.65,215.092h-24.659l-6.417,13.99h-9.363l28.502-61.219l27.494,61.219h-9.513L487.65,215.092z
	 M484.106,206.922l-8.543-19.586l-8.954,19.586H484.106z"/>
</svg>
